<svg xmlns="http://www.w3.org/2000/svg" xmlns:xlink="http://www.w3.org/1999/xlink" width="500" zoomAndPan="magnify" viewBox="0 0 375 374.999991" height="500" preserveAspectRatio="xMidYMid meet" version="1.0"><defs><g/><clipPath id="175ee8f6f2"><path d="M 138 116.214844 L 236.953125 116.214844 L 236.953125 189.714844 L 138 189.714844 Z M 138 116.214844 " clip-rule="nonzero"/></clipPath><clipPath id="4a383810bb"><path d="M 200 141 L 236.953125 141 L 236.953125 165 L 200 165 Z M 200 141 " clip-rule="nonzero"/></clipPath><clipPath id="ff45820379"><path d="M 138 116.214844 L 183 116.214844 L 183 161 L 138 161 Z M 138 116.214844 " clip-rule="nonzero"/></clipPath><clipPath id="4aa2ab0f9f"><path d="M 138 116.214844 L 167 116.214844 L 167 145 L 138 145 Z M 138 116.214844 " clip-rule="nonzero"/></clipPath></defs><g clip-path="url(#175ee8f6f2)"><path fill="#ffffff" d="M 146.339844 118.859375 C 143.324219 118.859375 140.875 121.3125 140.875 124.328125 L 140.875 181.523438 C 140.875 184.542969 143.324219 187.003906 146.339844 187.003906 L 228.648438 187.003906 C 231.664062 187.003906 234.117188 184.542969 234.117188 181.523438 L 234.117188 124.328125 C 234.117188 121.3125 231.664062 118.859375 228.648438 118.859375 Z M 228.648438 189.683594 L 146.339844 189.683594 C 141.847656 189.683594 138.195312 186.023438 138.195312 181.523438 L 138.195312 124.328125 C 138.195312 119.832031 141.847656 116.179688 146.339844 116.179688 L 228.648438 116.179688 C 233.140625 116.179688 236.796875 119.832031 236.796875 124.328125 L 236.796875 181.523438 C 236.796875 186.023438 233.140625 189.683594 228.648438 189.683594 " fill-opacity="1" fill-rule="nonzero"/></g><g clip-path="url(#4a383810bb)"><path fill="#ffffff" d="M 212.5 143.71875 C 210.039062 143.71875 207.734375 144.675781 205.996094 146.410156 C 204.257812 148.152344 203.292969 150.464844 203.292969 152.925781 C 203.292969 158.007812 207.421875 162.144531 212.5 162.144531 L 234.117188 162.144531 L 234.117188 143.71875 Z M 236.796875 164.824219 L 212.5 164.824219 C 205.949219 164.824219 200.613281 159.484375 200.613281 152.925781 C 200.613281 149.75 201.855469 146.765625 204.105469 144.515625 C 206.34375 142.273438 209.324219 141.039062 212.5 141.039062 L 236.796875 141.039062 L 236.796875 164.824219 " fill-opacity="1" fill-rule="nonzero"/></g><path fill="#ffffff" d="M 212.691406 149.203125 C 210.636719 149.203125 208.960938 150.878906 208.960938 152.929688 C 208.960938 154.984375 210.636719 156.660156 212.691406 156.660156 C 214.746094 156.660156 216.417969 154.984375 216.417969 152.929688 C 216.417969 150.878906 214.746094 149.203125 212.691406 149.203125 Z M 212.691406 159.339844 C 209.15625 159.339844 206.28125 156.464844 206.28125 152.929688 C 206.28125 149.398438 209.15625 146.523438 212.691406 146.523438 C 216.222656 146.523438 219.097656 149.398438 219.097656 152.929688 C 219.097656 156.464844 216.222656 159.339844 212.691406 159.339844 " fill-opacity="1" fill-rule="nonzero"/><g clip-path="url(#ff45820379)"><path fill="#ffffff" d="M 140.484375 160.34375 L 138.585938 158.449219 L 180.464844 116.570312 L 182.359375 118.464844 L 140.484375 160.34375 " fill-opacity="1" fill-rule="nonzero"/></g><g clip-path="url(#4aa2ab0f9f)"><path fill="#ffffff" d="M 140.484375 144.425781 L 138.585938 142.53125 L 164.558594 116.570312 L 166.453125 118.464844 L 140.484375 144.425781 " fill-opacity="1" fill-rule="nonzero"/></g><g fill="#ff00ff" fill-opacity="1"><g transform="translate(41.871323, 229.286615)"><g><path d="M 9.4375 0.265625 C 8.425781 0.265625 7.441406 0.125 6.484375 -0.15625 C 5.523438 -0.4375 4.644531 -0.851562 3.84375 -1.40625 C 3.039062 -1.957031 2.363281 -2.648438 1.8125 -3.484375 C 1.269531 -4.328125 0.90625 -5.304688 0.71875 -6.421875 L 4.78125 -7.453125 C 4.882812 -6.515625 5.15625 -5.742188 5.59375 -5.140625 C 6.039062 -4.535156 6.601562 -4.085938 7.28125 -3.796875 C 7.957031 -3.515625 8.695312 -3.375 9.5 -3.375 C 10.320312 -3.375 11.007812 -3.5 11.5625 -3.75 C 12.113281 -4.007812 12.535156 -4.359375 12.828125 -4.796875 C 13.117188 -5.242188 13.265625 -5.734375 13.265625 -6.265625 C 13.265625 -6.859375 13.109375 -7.363281 12.796875 -7.78125 C 12.484375 -8.195312 12.066406 -8.554688 11.546875 -8.859375 C 11.023438 -9.171875 10.4375 -9.457031 9.78125 -9.71875 C 9.125 -9.988281 8.445312 -10.257812 7.75 -10.53125 C 7.050781 -10.800781 6.375 -11.109375 5.71875 -11.453125 C 5.0625 -11.804688 4.472656 -12.222656 3.953125 -12.703125 C 3.429688 -13.179688 3.015625 -13.753906 2.703125 -14.421875 C 2.390625 -15.097656 2.234375 -15.898438 2.234375 -16.828125 C 2.234375 -17.835938 2.421875 -18.726562 2.796875 -19.5 C 3.179688 -20.28125 3.703125 -20.9375 4.359375 -21.46875 C 5.015625 -22.007812 5.769531 -22.414062 6.625 -22.6875 C 7.476562 -22.96875 8.382812 -23.109375 9.34375 -23.109375 C 10.75 -23.109375 12.054688 -22.785156 13.265625 -22.140625 C 14.484375 -21.503906 15.488281 -20.492188 16.28125 -19.109375 L 12.875 -17.03125 C 12.476562 -17.800781 11.957031 -18.398438 11.3125 -18.828125 C 10.664062 -19.253906 9.960938 -19.46875 9.203125 -19.46875 C 8.660156 -19.46875 8.171875 -19.363281 7.734375 -19.15625 C 7.304688 -18.957031 6.960938 -18.671875 6.703125 -18.296875 C 6.453125 -17.929688 6.328125 -17.507812 6.328125 -17.03125 C 6.328125 -16.488281 6.484375 -16.023438 6.796875 -15.640625 C 7.109375 -15.265625 7.523438 -14.9375 8.046875 -14.65625 C 8.566406 -14.375 9.15625 -14.101562 9.8125 -13.84375 C 10.46875 -13.59375 11.144531 -13.332031 11.84375 -13.0625 C 12.539062 -12.789062 13.21875 -12.472656 13.875 -12.109375 C 14.53125 -11.753906 15.117188 -11.332031 15.640625 -10.84375 C 16.160156 -10.363281 16.578125 -9.78125 16.890625 -9.09375 C 17.203125 -8.40625 17.359375 -7.585938 17.359375 -6.640625 C 17.359375 -5.566406 17.148438 -4.601562 16.734375 -3.75 C 16.316406 -2.894531 15.742188 -2.164062 15.015625 -1.5625 C 14.296875 -0.96875 13.457031 -0.515625 12.5 -0.203125 C 11.539062 0.109375 10.519531 0.265625 9.4375 0.265625 Z M 9.4375 0.265625 "/></g></g></g><g fill="#ff00ff" fill-opacity="1"><g transform="translate(64.640555, 229.286615)"><g><path d="M 2.9375 0 L 2.9375 -22.765625 L 8.4375 -22.765625 L 14.484375 -6.578125 L 20.53125 -22.765625 L 26.046875 -22.765625 L 26.046875 0 L 22.109375 0 L 22.109375 -17.03125 L 16.46875 -1.984375 L 12.5 -1.984375 L 6.859375 -17.03125 L 6.859375 0 Z M 2.9375 0 "/></g></g></g><g fill="#ff00ff" fill-opacity="1"><g transform="translate(98.056877, 229.286615)"><g><path d="M 0.1875 0 L 9.3125 -22.765625 L 12.375 -22.765625 L 21.453125 0 L 17.03125 0 L 15.28125 -4.953125 L 6.421875 -4.953125 L 4.65625 0 Z M 7.8125 -8.4375 L 13.890625 -8.4375 L 10.859375 -16.765625 Z M 7.8125 -8.4375 "/></g></g></g><g fill="#ff00ff" fill-opacity="1"><g transform="translate(124.144266, 229.286615)"><g><path d="M 2.9375 0.03125 L 2.9375 -22.765625 L 10.296875 -22.765625 C 11.359375 -22.765625 12.363281 -22.613281 13.3125 -22.3125 C 14.269531 -22.019531 15.109375 -21.585938 15.828125 -21.015625 C 16.554688 -20.441406 17.128906 -19.738281 17.546875 -18.90625 C 17.960938 -18.070312 18.171875 -17.125 18.171875 -16.0625 C 18.171875 -15.101562 17.976562 -14.234375 17.59375 -13.453125 C 17.21875 -12.671875 16.691406 -12 16.015625 -11.4375 C 15.347656 -10.875 14.585938 -10.441406 13.734375 -10.140625 L 20.0625 0.03125 L 15.375 0.03125 L 9.765625 -9.734375 L 7.03125 -9.734375 L 7.03125 0.03125 Z M 7.0625 -13.0625 L 10.671875 -13.0625 C 11.753906 -13.125 12.597656 -13.414062 13.203125 -13.9375 C 13.816406 -14.46875 14.125 -15.15625 14.125 -16 C 14.125 -16.945312 13.78125 -17.703125 13.09375 -18.265625 C 12.414062 -18.828125 11.492188 -19.109375 10.328125 -19.109375 L 7.0625 -19.109375 Z M 7.0625 -13.0625 "/></g></g></g><g fill="#ff00ff" fill-opacity="1"><g transform="translate(149.023582, 229.286615)"><g><path d="M 7.453125 0 L 7.453125 -19.109375 L 0.328125 -19.109375 L 0.328125 -22.765625 L 18.671875 -22.765625 L 18.671875 -19.109375 L 11.546875 -19.109375 L 11.546875 0 Z M 7.453125 0 "/></g></g></g><g fill="#ff00ff" fill-opacity="1"><g transform="translate(172.485434, 229.286615)"><g/></g></g><g fill="#ff00ff" fill-opacity="1"><g transform="translate(184.865286, 229.286615)"><g><path d="M 7.234375 0 L 0.40625 -22.765625 L 4.65625 -22.765625 L 9.5 -6.015625 L 14.546875 -21.453125 L 17.71875 -21.453125 L 22.765625 -6.015625 L 27.625 -22.765625 L 31.875 -22.765625 L 25.046875 0 L 21.09375 0 L 16.125 -14.984375 L 11.1875 0 Z M 7.234375 0 "/></g></g></g><g fill="#ff00ff" fill-opacity="1"><g transform="translate(221.583663, 229.286615)"><g><path d="M 0.1875 0 L 9.3125 -22.765625 L 12.375 -22.765625 L 21.453125 0 L 17.03125 0 L 15.28125 -4.953125 L 6.421875 -4.953125 L 4.65625 0 Z M 7.8125 -8.4375 L 13.890625 -8.4375 L 10.859375 -16.765625 Z M 7.8125 -8.4375 "/></g></g></g><g fill="#ff00ff" fill-opacity="1"><g transform="translate(247.671052, 229.286615)"><g><path d="M 2.9375 0 L 2.9375 -22.765625 L 7.03125 -22.765625 L 7.03125 -3.875 L 16.765625 -3.875 L 16.765625 0 Z M 2.9375 0 "/></g></g></g><g fill="#ff00ff" fill-opacity="1"><g transform="translate(269.248337, 229.286615)"><g><path d="M 2.9375 0 L 2.9375 -22.765625 L 7.03125 -22.765625 L 7.03125 -3.875 L 16.765625 -3.875 L 16.765625 0 Z M 2.9375 0 "/></g></g></g><g fill="#ff00ff" fill-opacity="1"><g transform="translate(290.825598, 229.286615)"><g><path d="M 2.9375 0 L 2.9375 -22.765625 L 18.078125 -22.765625 L 18.078125 -19.015625 L 7.03125 -19.015625 L 7.03125 -13.265625 L 17.328125 -13.265625 L 17.328125 -9.5 L 7.03125 -9.5 L 7.03125 -3.875 L 18.078125 -3.875 L 18.078125 0 Z M 2.9375 0 "/></g></g></g><g fill="#ff00ff" fill-opacity="1"><g transform="translate(315.334447, 229.286615)"><g><path d="M 7.453125 0 L 7.453125 -19.109375 L 0.328125 -19.109375 L 0.328125 -22.765625 L 18.671875 -22.765625 L 18.671875 -19.109375 L 11.546875 -19.109375 L 11.546875 0 Z M 7.453125 0 "/></g></g></g><g fill="#00ffff" fill-opacity="1"><g transform="translate(40.633841, 229.286615)"><g><path d="M 9.4375 0.265625 C 8.425781 0.265625 7.441406 0.125 6.484375 -0.15625 C 5.523438 -0.4375 4.644531 -0.851562 3.84375 -1.40625 C 3.039062 -1.957031 2.363281 -2.648438 1.8125 -3.484375 C 1.269531 -4.328125 0.90625 -5.304688 0.71875 -6.421875 L 4.78125 -7.453125 C 4.882812 -6.515625 5.15625 -5.742188 5.59375 -5.140625 C 6.039062 -4.535156 6.601562 -4.085938 7.28125 -3.796875 C 7.957031 -3.515625 8.695312 -3.375 9.5 -3.375 C 10.320312 -3.375 11.007812 -3.5 11.5625 -3.75 C 12.113281 -4.007812 12.535156 -4.359375 12.828125 -4.796875 C 13.117188 -5.242188 13.265625 -5.734375 13.265625 -6.265625 C 13.265625 -6.859375 13.109375 -7.363281 12.796875 -7.78125 C 12.484375 -8.195312 12.066406 -8.554688 11.546875 -8.859375 C 11.023438 -9.171875 10.4375 -9.457031 9.78125 -9.71875 C 9.125 -9.988281 8.445312 -10.257812 7.75 -10.53125 C 7.050781 -10.800781 6.375 -11.109375 5.71875 -11.453125 C 5.0625 -11.804688 4.472656 -12.222656 3.953125 -12.703125 C 3.429688 -13.179688 3.015625 -13.753906 2.703125 -14.421875 C 2.390625 -15.097656 2.234375 -15.898438 2.234375 -16.828125 C 2.234375 -17.835938 2.421875 -18.726562 2.796875 -19.5 C 3.179688 -20.28125 3.703125 -20.9375 4.359375 -21.46875 C 5.015625 -22.007812 5.769531 -22.414062 6.625 -22.6875 C 7.476562 -22.96875 8.382812 -23.109375 9.34375 -23.109375 C 10.75 -23.109375 12.054688 -22.785156 13.265625 -22.140625 C 14.484375 -21.503906 15.488281 -20.492188 16.28125 -19.109375 L 12.875 -17.03125 C 12.476562 -17.800781 11.957031 -18.398438 11.3125 -18.828125 C 10.664062 -19.253906 9.960938 -19.46875 9.203125 -19.46875 C 8.660156 -19.46875 8.171875 -19.363281 7.734375 -19.15625 C 7.304688 -18.957031 6.960938 -18.671875 6.703125 -18.296875 C 6.453125 -17.929688 6.328125 -17.507812 6.328125 -17.03125 C 6.328125 -16.488281 6.484375 -16.023438 6.796875 -15.640625 C 7.109375 -15.265625 7.523438 -14.9375 8.046875 -14.65625 C 8.566406 -14.375 9.15625 -14.101562 9.8125 -13.84375 C 10.46875 -13.59375 11.144531 -13.332031 11.84375 -13.0625 C 12.539062 -12.789062 13.21875 -12.472656 13.875 -12.109375 C 14.53125 -11.753906 15.117188 -11.332031 15.640625 -10.84375 C 16.160156 -10.363281 16.578125 -9.78125 16.890625 -9.09375 C 17.203125 -8.40625 17.359375 -7.585938 17.359375 -6.640625 C 17.359375 -5.566406 17.148438 -4.601562 16.734375 -3.75 C 16.316406 -2.894531 15.742188 -2.164062 15.015625 -1.5625 C 14.296875 -0.96875 13.457031 -0.515625 12.5 -0.203125 C 11.539062 0.109375 10.519531 0.265625 9.4375 0.265625 Z M 9.4375 0.265625 "/></g></g></g><g fill="#00ffff" fill-opacity="1"><g transform="translate(63.403073, 229.286615)"><g><path d="M 2.9375 0 L 2.9375 -22.765625 L 8.4375 -22.765625 L 14.484375 -6.578125 L 20.53125 -22.765625 L 26.046875 -22.765625 L 26.046875 0 L 22.109375 0 L 22.109375 -17.03125 L 16.46875 -1.984375 L 12.5 -1.984375 L 6.859375 -17.03125 L 6.859375 0 Z M 2.9375 0 "/></g></g></g><g fill="#00ffff" fill-opacity="1"><g transform="translate(96.819395, 229.286615)"><g><path d="M 0.1875 0 L 9.3125 -22.765625 L 12.375 -22.765625 L 21.453125 0 L 17.03125 0 L 15.28125 -4.953125 L 6.421875 -4.953125 L 4.65625 0 Z M 7.8125 -8.4375 L 13.890625 -8.4375 L 10.859375 -16.765625 Z M 7.8125 -8.4375 "/></g></g></g><g fill="#00ffff" fill-opacity="1"><g transform="translate(122.906784, 229.286615)"><g><path d="M 2.9375 0.03125 L 2.9375 -22.765625 L 10.296875 -22.765625 C 11.359375 -22.765625 12.363281 -22.613281 13.3125 -22.3125 C 14.269531 -22.019531 15.109375 -21.585938 15.828125 -21.015625 C 16.554688 -20.441406 17.128906 -19.738281 17.546875 -18.90625 C 17.960938 -18.070312 18.171875 -17.125 18.171875 -16.0625 C 18.171875 -15.101562 17.976562 -14.234375 17.59375 -13.453125 C 17.21875 -12.671875 16.691406 -12 16.015625 -11.4375 C 15.347656 -10.875 14.585938 -10.441406 13.734375 -10.140625 L 20.0625 0.03125 L 15.375 0.03125 L 9.765625 -9.734375 L 7.03125 -9.734375 L 7.03125 0.03125 Z M 7.0625 -13.0625 L 10.671875 -13.0625 C 11.753906 -13.125 12.597656 -13.414062 13.203125 -13.9375 C 13.816406 -14.46875 14.125 -15.15625 14.125 -16 C 14.125 -16.945312 13.78125 -17.703125 13.09375 -18.265625 C 12.414062 -18.828125 11.492188 -19.109375 10.328125 -19.109375 L 7.0625 -19.109375 Z M 7.0625 -13.0625 "/></g></g></g><g fill="#00ffff" fill-opacity="1"><g transform="translate(147.786101, 229.286615)"><g><path d="M 7.453125 0 L 7.453125 -19.109375 L 0.328125 -19.109375 L 0.328125 -22.765625 L 18.671875 -22.765625 L 18.671875 -19.109375 L 11.546875 -19.109375 L 11.546875 0 Z M 7.453125 0 "/></g></g></g><g fill="#00ffff" fill-opacity="1"><g transform="translate(171.247952, 229.286615)"><g/></g></g><g fill="#00ffff" fill-opacity="1"><g transform="translate(183.627804, 229.286615)"><g><path d="M 7.234375 0 L 0.40625 -22.765625 L 4.65625 -22.765625 L 9.5 -6.015625 L 14.546875 -21.453125 L 17.71875 -21.453125 L 22.765625 -6.015625 L 27.625 -22.765625 L 31.875 -22.765625 L 25.046875 0 L 21.09375 0 L 16.125 -14.984375 L 11.1875 0 Z M 7.234375 0 "/></g></g></g><g fill="#00ffff" fill-opacity="1"><g transform="translate(220.346181, 229.286615)"><g><path d="M 0.1875 0 L 9.3125 -22.765625 L 12.375 -22.765625 L 21.453125 0 L 17.03125 0 L 15.28125 -4.953125 L 6.421875 -4.953125 L 4.65625 0 Z M 7.8125 -8.4375 L 13.890625 -8.4375 L 10.859375 -16.765625 Z M 7.8125 -8.4375 "/></g></g></g><g fill="#00ffff" fill-opacity="1"><g transform="translate(246.433571, 229.286615)"><g><path d="M 2.9375 0 L 2.9375 -22.765625 L 7.03125 -22.765625 L 7.03125 -3.875 L 16.765625 -3.875 L 16.765625 0 Z M 2.9375 0 "/></g></g></g><g fill="#00ffff" fill-opacity="1"><g transform="translate(268.010855, 229.286615)"><g><path d="M 2.9375 0 L 2.9375 -22.765625 L 7.03125 -22.765625 L 7.03125 -3.875 L 16.765625 -3.875 L 16.765625 0 Z M 2.9375 0 "/></g></g></g><g fill="#00ffff" fill-opacity="1"><g transform="translate(289.588116, 229.286615)"><g><path d="M 2.9375 0 L 2.9375 -22.765625 L 18.078125 -22.765625 L 18.078125 -19.015625 L 7.03125 -19.015625 L 7.03125 -13.265625 L 17.328125 -13.265625 L 17.328125 -9.5 L 7.03125 -9.5 L 7.03125 -3.875 L 18.078125 -3.875 L 18.078125 0 Z M 2.9375 0 "/></g></g></g><g fill="#00ffff" fill-opacity="1"><g transform="translate(314.096965, 229.286615)"><g><path d="M 7.453125 0 L 7.453125 -19.109375 L 0.328125 -19.109375 L 0.328125 -22.765625 L 18.671875 -22.765625 L 18.671875 -19.109375 L 11.546875 -19.109375 L 11.546875 0 Z M 7.453125 0 "/></g></g></g><g fill="#f6eceb" fill-opacity="1"><g transform="translate(41.252582, 229.286615)"><g><path d="M 9.4375 0.265625 C 8.425781 0.265625 7.441406 0.125 6.484375 -0.15625 C 5.523438 -0.4375 4.644531 -0.851562 3.84375 -1.40625 C 3.039062 -1.957031 2.363281 -2.648438 1.8125 -3.484375 C 1.269531 -4.328125 0.90625 -5.304688 0.71875 -6.421875 L 4.78125 -7.453125 C 4.882812 -6.515625 5.15625 -5.742188 5.59375 -5.140625 C 6.039062 -4.535156 6.601562 -4.085938 7.28125 -3.796875 C 7.957031 -3.515625 8.695312 -3.375 9.5 -3.375 C 10.320312 -3.375 11.007812 -3.5 11.5625 -3.75 C 12.113281 -4.007812 12.535156 -4.359375 12.828125 -4.796875 C 13.117188 -5.242188 13.265625 -5.734375 13.265625 -6.265625 C 13.265625 -6.859375 13.109375 -7.363281 12.796875 -7.78125 C 12.484375 -8.195312 12.066406 -8.554688 11.546875 -8.859375 C 11.023438 -9.171875 10.4375 -9.457031 9.78125 -9.71875 C 9.125 -9.988281 8.445312 -10.257812 7.75 -10.53125 C 7.050781 -10.800781 6.375 -11.109375 5.71875 -11.453125 C 5.0625 -11.804688 4.472656 -12.222656 3.953125 -12.703125 C 3.429688 -13.179688 3.015625 -13.753906 2.703125 -14.421875 C 2.390625 -15.097656 2.234375 -15.898438 2.234375 -16.828125 C 2.234375 -17.835938 2.421875 -18.726562 2.796875 -19.5 C 3.179688 -20.28125 3.703125 -20.9375 4.359375 -21.46875 C 5.015625 -22.007812 5.769531 -22.414062 6.625 -22.6875 C 7.476562 -22.96875 8.382812 -23.109375 9.34375 -23.109375 C 10.75 -23.109375 12.054688 -22.785156 13.265625 -22.140625 C 14.484375 -21.503906 15.488281 -20.492188 16.28125 -19.109375 L 12.875 -17.03125 C 12.476562 -17.800781 11.957031 -18.398438 11.3125 -18.828125 C 10.664062 -19.253906 9.960938 -19.46875 9.203125 -19.46875 C 8.660156 -19.46875 8.171875 -19.363281 7.734375 -19.15625 C 7.304688 -18.957031 6.960938 -18.671875 6.703125 -18.296875 C 6.453125 -17.929688 6.328125 -17.507812 6.328125 -17.03125 C 6.328125 -16.488281 6.484375 -16.023438 6.796875 -15.640625 C 7.109375 -15.265625 7.523438 -14.9375 8.046875 -14.65625 C 8.566406 -14.375 9.15625 -14.101562 9.8125 -13.84375 C 10.46875 -13.59375 11.144531 -13.332031 11.84375 -13.0625 C 12.539062 -12.789062 13.21875 -12.472656 13.875 -12.109375 C 14.53125 -11.753906 15.117188 -11.332031 15.640625 -10.84375 C 16.160156 -10.363281 16.578125 -9.78125 16.890625 -9.09375 C 17.203125 -8.40625 17.359375 -7.585938 17.359375 -6.640625 C 17.359375 -5.566406 17.148438 -4.601562 16.734375 -3.75 C 16.316406 -2.894531 15.742188 -2.164062 15.015625 -1.5625 C 14.296875 -0.96875 13.457031 -0.515625 12.5 -0.203125 C 11.539062 0.109375 10.519531 0.265625 9.4375 0.265625 Z M 9.4375 0.265625 "/></g></g></g><g fill="#f6eceb" fill-opacity="1"><g transform="translate(64.021814, 229.286615)"><g><path d="M 2.9375 0 L 2.9375 -22.765625 L 8.4375 -22.765625 L 14.484375 -6.578125 L 20.53125 -22.765625 L 26.046875 -22.765625 L 26.046875 0 L 22.109375 0 L 22.109375 -17.03125 L 16.46875 -1.984375 L 12.5 -1.984375 L 6.859375 -17.03125 L 6.859375 0 Z M 2.9375 0 "/></g></g></g><g fill="#f6eceb" fill-opacity="1"><g transform="translate(97.438136, 229.286615)"><g><path d="M 0.1875 0 L 9.3125 -22.765625 L 12.375 -22.765625 L 21.453125 0 L 17.03125 0 L 15.28125 -4.953125 L 6.421875 -4.953125 L 4.65625 0 Z M 7.8125 -8.4375 L 13.890625 -8.4375 L 10.859375 -16.765625 Z M 7.8125 -8.4375 "/></g></g></g><g fill="#f6eceb" fill-opacity="1"><g transform="translate(123.525525, 229.286615)"><g><path d="M 2.9375 0.03125 L 2.9375 -22.765625 L 10.296875 -22.765625 C 11.359375 -22.765625 12.363281 -22.613281 13.3125 -22.3125 C 14.269531 -22.019531 15.109375 -21.585938 15.828125 -21.015625 C 16.554688 -20.441406 17.128906 -19.738281 17.546875 -18.90625 C 17.960938 -18.070312 18.171875 -17.125 18.171875 -16.0625 C 18.171875 -15.101562 17.976562 -14.234375 17.59375 -13.453125 C 17.21875 -12.671875 16.691406 -12 16.015625 -11.4375 C 15.347656 -10.875 14.585938 -10.441406 13.734375 -10.140625 L 20.0625 0.03125 L 15.375 0.03125 L 9.765625 -9.734375 L 7.03125 -9.734375 L 7.03125 0.03125 Z M 7.0625 -13.0625 L 10.671875 -13.0625 C 11.753906 -13.125 12.597656 -13.414062 13.203125 -13.9375 C 13.816406 -14.46875 14.125 -15.15625 14.125 -16 C 14.125 -16.945312 13.78125 -17.703125 13.09375 -18.265625 C 12.414062 -18.828125 11.492188 -19.109375 10.328125 -19.109375 L 7.0625 -19.109375 Z M 7.0625 -13.0625 "/></g></g></g><g fill="#f6eceb" fill-opacity="1"><g transform="translate(148.404842, 229.286615)"><g><path d="M 7.453125 0 L 7.453125 -19.109375 L 0.328125 -19.109375 L 0.328125 -22.765625 L 18.671875 -22.765625 L 18.671875 -19.109375 L 11.546875 -19.109375 L 11.546875 0 Z M 7.453125 0 "/></g></g></g><g fill="#f6eceb" fill-opacity="1"><g transform="translate(171.866693, 229.286615)"><g/></g></g><g fill="#f6eceb" fill-opacity="1"><g transform="translate(184.246545, 229.286615)"><g><path d="M 7.234375 0 L 0.40625 -22.765625 L 4.65625 -22.765625 L 9.5 -6.015625 L 14.546875 -21.453125 L 17.71875 -21.453125 L 22.765625 -6.015625 L 27.625 -22.765625 L 31.875 -22.765625 L 25.046875 0 L 21.09375 0 L 16.125 -14.984375 L 11.1875 0 Z M 7.234375 0 "/></g></g></g><g fill="#f6eceb" fill-opacity="1"><g transform="translate(220.964922, 229.286615)"><g><path d="M 0.1875 0 L 9.3125 -22.765625 L 12.375 -22.765625 L 21.453125 0 L 17.03125 0 L 15.28125 -4.953125 L 6.421875 -4.953125 L 4.65625 0 Z M 7.8125 -8.4375 L 13.890625 -8.4375 L 10.859375 -16.765625 Z M 7.8125 -8.4375 "/></g></g></g><g fill="#f6eceb" fill-opacity="1"><g transform="translate(247.052312, 229.286615)"><g><path d="M 2.9375 0 L 2.9375 -22.765625 L 7.03125 -22.765625 L 7.03125 -3.875 L 16.765625 -3.875 L 16.765625 0 Z M 2.9375 0 "/></g></g></g><g fill="#f6eceb" fill-opacity="1"><g transform="translate(268.629596, 229.286615)"><g><path d="M 2.9375 0 L 2.9375 -22.765625 L 7.03125 -22.765625 L 7.03125 -3.875 L 16.765625 -3.875 L 16.765625 0 Z M 2.9375 0 "/></g></g></g><g fill="#f6eceb" fill-opacity="1"><g transform="translate(290.206857, 229.286615)"><g><path d="M 2.9375 0 L 2.9375 -22.765625 L 18.078125 -22.765625 L 18.078125 -19.015625 L 7.03125 -19.015625 L 7.03125 -13.265625 L 17.328125 -13.265625 L 17.328125 -9.5 L 7.03125 -9.5 L 7.03125 -3.875 L 18.078125 -3.875 L 18.078125 0 Z M 2.9375 0 "/></g></g></g><g fill="#f6eceb" fill-opacity="1"><g transform="translate(314.715706, 229.286615)"><g><path d="M 7.453125 0 L 7.453125 -19.109375 L 0.328125 -19.109375 L 0.328125 -22.765625 L 18.671875 -22.765625 L 18.671875 -19.109375 L 11.546875 -19.109375 L 11.546875 0 Z M 7.453125 0 "/></g></g></g><g fill="#f6eceb" fill-opacity="1"><g transform="translate(129.882003, 254.936659)"><g><path d="M 0.765625 -0.640625 L 1.8125 -0.640625 L 1.8125 -9.125 L 0.765625 -9.125 L 0.765625 -9.765625 L 4.078125 -9.765625 L 4.078125 -9.125 L 3.03125 -9.125 L 3.03125 -0.6875 L 6.609375 -0.6875 L 6.609375 -2.484375 L 7.609375 -2.484375 L 7.609375 0 L 0.765625 0 Z M 0.765625 -0.640625 "/></g></g></g><g fill="#f6eceb" fill-opacity="1"><g transform="translate(145.207369, 254.936659)"><g><path d="M 0.765625 -0.640625 L 1.8125 -0.640625 L 1.8125 -9.125 L 0.765625 -9.125 L 0.765625 -9.765625 L 8 -9.765625 L 8 -7.421875 L 6.984375 -7.421875 L 6.984375 -9.09375 L 3.03125 -9.09375 L 3.03125 -5.375 L 5.796875 -5.375 L 5.796875 -6.5 L 6.640625 -6.5 L 6.640625 -3.5625 L 5.796875 -3.5625 L 5.796875 -4.6875 L 3.03125 -4.6875 L 3.03125 -0.6875 L 7.125 -0.6875 L 7.125 -2.484375 L 8.140625 -2.484375 L 8.140625 0 L 0.765625 0 Z M 0.765625 -0.640625 "/></g></g></g><g fill="#f6eceb" fill-opacity="1"><g transform="translate(161.19037, 254.936659)"><g><path d="M 1.03125 -9.125 L 0.296875 -9.125 L 0.296875 -9.765625 L 3.5625 -9.765625 L 3.5625 -9.125 L 2.3125 -9.125 L 3.75 -4.78125 L 4.859375 -1.203125 L 4.90625 -1.203125 L 6.046875 -4.796875 L 7.421875 -9.125 L 6.15625 -9.125 L 6.15625 -9.765625 L 9 -9.765625 L 9 -9.125 L 8.265625 -9.125 L 5.25 0 L 4.046875 0 Z M 1.03125 -9.125 "/></g></g></g><g fill="#f6eceb" fill-opacity="1"><g transform="translate(177.49519, 254.936659)"><g><path d="M 0.765625 -0.640625 L 1.8125 -0.640625 L 1.8125 -9.125 L 0.765625 -9.125 L 0.765625 -9.765625 L 8 -9.765625 L 8 -7.421875 L 6.984375 -7.421875 L 6.984375 -9.09375 L 3.03125 -9.09375 L 3.03125 -5.375 L 5.796875 -5.375 L 5.796875 -6.5 L 6.640625 -6.5 L 6.640625 -3.5625 L 5.796875 -3.5625 L 5.796875 -4.6875 L 3.03125 -4.6875 L 3.03125 -0.6875 L 7.125 -0.6875 L 7.125 -2.484375 L 8.140625 -2.484375 L 8.140625 0 L 0.765625 0 Z M 0.765625 -0.640625 "/></g></g></g><g fill="#f6eceb" fill-opacity="1"><g transform="translate(193.47819, 254.936659)"><g><path d="M 0.765625 -0.640625 L 1.8125 -0.640625 L 1.8125 -9.125 L 0.765625 -9.125 L 0.765625 -9.765625 L 4.078125 -9.765625 L 4.078125 -9.125 L 3.03125 -9.125 L 3.03125 -0.6875 L 6.609375 -0.6875 L 6.609375 -2.484375 L 7.609375 -2.484375 L 7.609375 0 L 0.765625 0 Z M 0.765625 -0.640625 "/></g></g></g><g fill="#f6eceb" fill-opacity="1"><g transform="translate(208.803557, 254.936659)"><g/></g></g><g fill="#f6eceb" fill-opacity="1"><g transform="translate(219.063745, 254.936659)"><g><path d="M 5.25 0.171875 C 4.613281 0.171875 4.066406 0.101562 3.609375 -0.03125 C 3.160156 -0.175781 2.789062 -0.40625 2.5 -0.71875 C 2.21875 -1.039062 2.007812 -1.445312 1.875 -1.9375 C 1.75 -2.4375 1.6875 -3.046875 1.6875 -3.765625 L 1.6875 -9.125 L 0.625 -9.125 L 0.625 -9.765625 L 3.9375 -9.765625 L 3.9375 -9.125 L 2.890625 -9.125 L 2.890625 -3.546875 C 2.890625 -3.046875 2.929688 -2.613281 3.015625 -2.25 C 3.097656 -1.882812 3.234375 -1.582031 3.421875 -1.34375 C 3.609375 -1.113281 3.859375 -0.9375 4.171875 -0.8125 C 4.484375 -0.6875 4.863281 -0.625 5.3125 -0.625 C 6.226562 -0.625 6.878906 -0.863281 7.265625 -1.34375 C 7.648438 -1.832031 7.84375 -2.566406 7.84375 -3.546875 L 7.84375 -9.125 L 6.796875 -9.125 L 6.796875 -9.765625 L 9.65625 -9.765625 L 9.65625 -9.125 L 8.609375 -9.125 L 8.609375 -3.953125 C 8.609375 -3.242188 8.550781 -2.628906 8.4375 -2.109375 C 8.332031 -1.585938 8.144531 -1.160156 7.875 -0.828125 C 7.601562 -0.492188 7.253906 -0.242188 6.828125 -0.078125 C 6.398438 0.0859375 5.875 0.171875 5.25 0.171875 Z M 5.25 0.171875 "/></g></g></g><g fill="#f6eceb" fill-opacity="1"><g transform="translate(236.362004, 254.936659)"><g><path d="M 0.765625 -0.640625 L 1.8125 -0.640625 L 1.8125 -9.125 L 0.765625 -9.125 L 0.765625 -9.765625 L 5.328125 -9.765625 C 6.210938 -9.765625 6.890625 -9.539062 7.359375 -9.09375 C 7.835938 -8.65625 8.078125 -8.007812 8.078125 -7.15625 C 8.078125 -6.300781 7.832031 -5.640625 7.34375 -5.171875 C 6.863281 -4.710938 6.1875 -4.484375 5.3125 -4.484375 L 3.03125 -4.484375 L 3.03125 -0.640625 L 4.359375 -0.640625 L 4.359375 0 L 0.765625 0 Z M 3.03125 -5.171875 L 5.234375 -5.171875 C 5.734375 -5.171875 6.117188 -5.328125 6.390625 -5.640625 C 6.660156 -5.960938 6.796875 -6.347656 6.796875 -6.796875 L 6.796875 -7.453125 C 6.796875 -7.910156 6.660156 -8.296875 6.390625 -8.609375 C 6.117188 -8.929688 5.734375 -9.09375 5.234375 -9.09375 L 3.03125 -9.09375 Z M 3.03125 -5.171875 "/></g></g></g></svg>