<svg xmlns="http://www.w3.org/2000/svg" xmlns:xlink="http://www.w3.org/1999/xlink" width="500" zoomAndPan="magnify" viewBox="0 0 375 374.999991" height="500" preserveAspectRatio="xMidYMid meet" version="1.0"><defs><clipPath id="89f19917e9"><path d="M 73 102.296875 L 302 102.296875 L 302 272.546875 L 73 272.546875 Z M 73 102.296875 " clip-rule="nonzero"/></clipPath></defs><g clip-path="url(#89f19917e9)"><path fill="#111827" d="M 92.175781 108.425781 C 85.191406 108.425781 79.515625 114.109375 79.515625 121.09375 L 79.515625 253.566406 C 79.515625 260.5625 85.191406 266.261719 92.175781 266.261719 L 282.820312 266.261719 C 289.804688 266.261719 295.480469 260.5625 295.480469 253.566406 L 295.480469 121.09375 C 295.480469 114.109375 289.804688 108.425781 282.820312 108.425781 Z M 282.820312 272.46875 L 92.175781 272.46875 C 81.773438 272.46875 73.308594 263.992188 73.308594 253.566406 L 73.308594 121.09375 C 73.308594 110.679688 81.773438 102.214844 92.175781 102.214844 L 282.820312 102.214844 C 293.222656 102.214844 301.6875 110.679688 301.6875 121.09375 L 301.6875 253.566406 C 301.6875 263.992188 293.222656 272.46875 282.820312 272.46875 " fill-opacity="1" fill-rule="nonzero"/></g><path fill="#111827" d="M 245.417969 166.003906 C 239.71875 166.003906 234.371094 168.222656 230.347656 172.234375 C 226.320312 176.273438 224.089844 181.632812 224.089844 187.332031 C 224.089844 199.101562 233.65625 208.683594 245.417969 208.683594 L 295.480469 208.683594 L 295.480469 166.003906 Z M 301.6875 214.890625 L 245.417969 214.890625 C 230.238281 214.890625 217.882812 202.523438 217.882812 187.332031 C 217.882812 179.972656 220.753906 173.058594 225.96875 167.847656 C 231.160156 162.65625 238.058594 159.796875 245.417969 159.796875 L 301.6875 159.796875 L 301.6875 214.890625 " fill-opacity="1" fill-rule="nonzero"/><path fill="#111827" d="M 245.851562 178.710938 C 241.101562 178.710938 237.21875 182.589844 237.21875 187.34375 C 237.21875 192.09375 241.101562 195.976562 245.851562 195.976562 C 250.617188 195.976562 254.484375 192.09375 254.484375 187.34375 C 254.484375 182.589844 250.617188 178.710938 245.851562 178.710938 Z M 245.851562 202.183594 C 237.667969 202.183594 231.011719 195.527344 231.011719 187.34375 C 231.011719 179.160156 237.667969 172.503906 245.851562 172.503906 C 254.039062 172.503906 260.695312 179.160156 260.695312 187.34375 C 260.695312 195.527344 254.039062 202.183594 245.851562 202.183594 " fill-opacity="1" fill-rule="nonzero"/><path fill="#111827" d="M 78.609375 204.511719 L 74.21875 200.121094 L 171.214844 103.125 L 175.605469 107.515625 L 78.609375 204.511719 " fill-opacity="1" fill-rule="nonzero"/><path fill="#111827" d="M 78.609375 167.640625 L 74.21875 163.25 L 134.367188 103.125 L 138.757812 107.515625 L 78.609375 167.640625 " fill-opacity="1" fill-rule="nonzero"/></svg>