<svg xmlns="http://www.w3.org/2000/svg" xmlns:xlink="http://www.w3.org/1999/xlink" width="500" zoomAndPan="magnify" viewBox="0 0 375 374.999991" height="500" preserveAspectRatio="xMidYMid meet" version="1.0"><defs><g/><clipPath id="f8b6214ab3"><path d="M 0 187.5 L 375 187.5 L 375 375 L 0 375 Z M 0 187.5 " clip-rule="nonzero"/></clipPath><clipPath id="856844b1d5"><rect x="0" width="326" y="0" height="93"/></clipPath></defs><g clip-path="url(#f8b6214ab3)"><path fill="#000000" d="M 220.132812 292.800781 C 220.988281 292.570312 222.003906 293.234375 222.003906 294.058594 C 222.03125 331.121094 221.582031 329.660156 222.164062 329.605469 C 222.46875 329.574219 222.601562 329.191406 222.621094 328.894531 C 222.652344 328.492188 222.414062 328.046875 222.839844 327.71875 L 222.824219 327.71875 C 223.378906 327.777344 223.933594 327.832031 224.492188 327.886719 C 224.492188 328.351562 224.492188 328.8125 224.492188 329.515625 C 224.855469 328.875 225.246094 328.699219 225.757812 328.796875 C 225.9375 328.828125 226.113281 328.777344 226.109375 328.542969 C 226.085938 327.871094 226.222656 327.191406 226.035156 326.527344 C 225.875 325.957031 225.417969 326.394531 225.132812 326.253906 C 224.757812 326.066406 224.113281 326.71875 224.050781 326.175781 C 223.988281 325.679688 224.714844 325.992188 225.082031 325.910156 C 225.542969 325.808594 225.945312 325.519531 226.449219 325.53125 C 226.789062 325.539062 226.453125 251.460938 226.449219 251.3125 C 226.402344 249.714844 226.847656 250.265625 227.988281 249.910156 C 228.019531 249.945312 227.972656 250.109375 228.109375 249.984375 C 228.058594 249.96875 228.011719 249.949219 227.964844 249.933594 C 228.445312 249.246094 230.019531 250.042969 230.761719 247.632812 C 230.8125 247.472656 230.921875 247.355469 231.042969 247.386719 C 231.6875 247.554688 232.140625 246.953125 232.78125 246.992188 C 233.320312 247.023438 234.074219 246.003906 234.109375 245.410156 C 234.179688 244.308594 233.90625 243.214844 233.960938 242.132812 C 234.570312 230.332031 233.128906 230.003906 234.503906 227.4375 C 234.648438 227.175781 235.414062 227.664062 235.441406 228.121094 C 235.511719 229.328125 235.792969 230.628906 235.554688 231.71875 C 234.867188 234.898438 236.027344 237.675781 235.34375 245.472656 C 235.332031 245.605469 235.0625 246.679688 236.019531 246.101562 C 236.179688 246.003906 236.210938 246.058594 236.320312 246.695312 C 236.277344 246.714844 236.238281 246.734375 236.195312 246.75 C 236.210938 246.773438 236.230469 246.792969 236.246094 246.816406 C 236.269531 246.773438 236.292969 246.734375 236.316406 246.691406 C 237.554688 247.820312 239.167969 246.945312 239.035156 247.765625 C 238.917969 248.457031 239.324219 249.121094 239.128906 249.824219 C 239.0625 250.054688 239.441406 250.082031 240.0625 249.847656 L 240.039062 249.871094 C 240.90625 250.195312 241.808594 249.949219 242.691406 250.011719 C 242.808594 250.019531 242.984375 249.898438 242.816406 249.675781 C 242.6875 249.503906 242.644531 249.273438 242.5625 249.070312 C 242.5625 249.070312 242.597656 249.09375 242.597656 249.09375 C 242.757812 249.023438 242.757812 248.953125 242.597656 248.886719 L 242.5625 248.90625 C 242.632812 248.566406 242.070312 248.640625 242.152344 248.269531 C 242.570312 248.140625 242.636719 248.816406 243.050781 248.664062 C 243.105469 248.65625 243.160156 248.65625 243.214844 248.652344 C 243.195312 248.625 243.179688 248.597656 243.160156 248.570312 C 243.125 248.605469 243.085938 248.644531 243.050781 248.679688 C 243.300781 248.769531 243.222656 248.316406 243.546875 248.449219 C 243.3125 249.03125 243.429688 249.246094 244.148438 249.105469 C 244.703125 249 245.304688 249.148438 245.882812 249.011719 C 246.179688 248.945312 246.429688 249.074219 246.5 249.417969 C 246.574219 249.371094 246.476562 249.425781 246.402344 249.472656 C 246.445312 249.515625 246.488281 249.558594 246.53125 249.601562 L 246.503906 249.585938 C 246.460938 249.792969 245.96875 249.863281 246.21875 250.058594 C 246.960938 250.644531 247.644531 249.480469 248.140625 249.855469 C 248.453125 250.09375 248.582031 250.558594 248.09375 250.902344 C 248.023438 250.949219 248.046875 255.808594 248.046875 255.894531 C 248.042969 256.160156 248.042969 256.5 248.335938 256.515625 C 248.777344 256.539062 249.59375 256.820312 249.039062 257.164062 C 250.320312 257.308594 251.492188 257.394531 252.660156 257.507812 C 253.554688 257.59375 254.417969 257.15625 255.324219 257.535156 C 255.679688 257.683594 255.859375 257.871094 255.824219 258.152344 C 255.125 264.207031 255.863281 290.425781 255.476562 301.863281 C 256.332031 302.03125 264.898438 302.507812 265.40625 302.890625 C 265.644531 301.410156 265.292969 297.773438 265.507812 295.992188 C 265.792969 293.609375 265.757812 293.328125 266.949219 293.367188 C 268.871094 293.429688 267.070312 291.660156 269.0625 291.65625 C 271.042969 291.648438 270.40625 291.507812 273.464844 291.175781 C 273.464844 291.175781 273.503906 291.144531 273.503906 291.144531 L 273.457031 291.167969 C 273.933594 290.507812 273.09375 290.464844 272.984375 290.082031 C 273.269531 289.976562 273.5 289.902344 273.910156 290.078125 C 274.613281 290.382812 275.433594 290.117188 276.203125 290.046875 C 276.941406 289.980469 275.820312 285.054688 276.511719 283.503906 C 276.769531 282.929688 277.273438 283.503906 277.671875 283.371094 C 278.859375 282.976562 280.078125 283.589844 280.179688 282.9375 C 280.238281 282.585938 281.480469 282.894531 281.9375 282.84375 C 282.277344 282.804688 282.210938 282.394531 282.234375 282.128906 C 282.328125 281.050781 282.367188 281.03125 283.433594 281.027344 C 288.203125 281 285.710938 280.609375 286.675781 279.949219 C 287.085938 280.046875 286.472656 280.582031 286.964844 280.636719 C 287.730469 280.722656 286.941406 279.796875 287.621094 279.8125 C 287.753906 279.988281 287.441406 280.175781 287.480469 280.40625 C 287.519531 280.628906 287.457031 280.890625 287.808594 280.855469 C 288.476562 280.792969 288.570312 281.199219 288.503906 281.710938 C 288.375 282.753906 289.347656 282.226562 290.203125 282.835938 C 291.113281 283.480469 291.496094 282.640625 292 282.230469 C 292.328125 281.964844 291.726562 281.5625 292.007812 281.210938 C 292.492188 281.339844 292.035156 281.867188 292.402344 282.039062 C 292.667969 281.90625 292.226562 281.628906 292.574219 281.480469 C 292.675781 282.785156 293.621094 282.363281 294.378906 282.367188 C 296.785156 282.378906 297.519531 281.746094 297.523438 283.230469 C 297.570312 306.226562 297.339844 322.210938 297.339844 322.210938 C 297.34375 323.042969 297.964844 322.445312 299.761719 322.832031 C 300.222656 322.929688 300.71875 322.699219 300.886719 323.460938 C 300.972656 323.847656 301.59375 323.667969 301.964844 323.6875 C 303.46875 323.777344 303.472656 323.761719 303.464844 322.25 C 303.445312 318.050781 303.585938 313.851562 303.417969 309.652344 C 303.402344 309.28125 302.96875 306.90625 303.761719 305.632812 C 304.75 304.046875 303.03125 302.105469 305.191406 300.304688 C 305.953125 299.667969 306.160156 298.707031 306.382812 297.878906 C 306.703125 296.679688 307.273438 295.578125 307.546875 294.375 C 307.636719 293.96875 307.882812 293.871094 308.078125 294.34375 C 309.710938 298.347656 309.410156 298.171875 310.234375 298.039062 C 316.433594 297.050781 316.582031 298.570312 316.527344 296.132812 C 316.453125 292.625 316.753906 289.125 316.742188 285.617188 C 316.742188 285.304688 316.414062 285.074219 317.152344 285.035156 C 317.140625 285.007812 317.125 284.984375 317.113281 284.957031 C 317.074219 284.988281 317.035156 285.023438 316.996094 285.054688 C 317.75 284.554688 318.652344 284.664062 319.480469 284.460938 C 320.800781 284.132812 322.144531 284.378906 323.492188 284.414062 C 323.476562 283.917969 326.789062 284.082031 328.976562 284.199219 C 331.640625 284.347656 330.070312 283.175781 331.359375 282.515625 L 331.332031 282.554688 C 331.355469 282.59375 331.375 282.636719 331.398438 282.679688 C 331.445312 282.636719 331.488281 282.597656 331.535156 282.554688 L 331.511719 282.515625 C 334.164062 279.761719 337.277344 280.433594 337.839844 280.683594 C 339.628906 281.480469 340.609375 279.664062 340.699219 281.328125 C 340.746094 282.222656 342.832031 281.425781 343.691406 281.628906 C 344.347656 281.78125 345.242188 281.226562 345.585938 282.28125 C 345.683594 282.570312 345.890625 282.394531 346.066406 282.414062 C 347.523438 282.609375 347.148438 282.699219 347.171875 289.101562 C 347.242188 307.613281 347.167969 310.851562 347.3125 311.132812 C 347.453125 309.253906 349.757812 310.09375 352.628906 309.929688 C 353.054688 309.90625 353.449219 310.179688 353.917969 310.136719 C 354.25 310.109375 354.304688 310.488281 354.304688 310.78125 C 354.300781 313.382812 354.039062 313.726562 355.003906 313.683594 C 361.179688 313.429688 358.800781 312.058594 359.328125 324.050781 C 359.363281 324.859375 359.703125 325.066406 360.359375 324.792969 C 360.898438 324.566406 361.335938 324.933594 361.839844 324.917969 C 363.097656 324.882812 362.722656 324.773438 362.878906 320.226562 C 362.882812 320.105469 362.964844 319.988281 363.136719 319.878906 C 363.136719 324.65625 363.035156 324.425781 363.351562 324.550781 C 364.949219 325.195312 364.597656 323.359375 366.636719 324.386719 C 367.308594 324.726562 367.402344 324.507812 367.394531 323.890625 C 367.375 322.164062 367.675781 320.449219 367.5625 318.71875 C 367.554688 318.574219 367.507812 318.382812 367.773438 318.273438 C 368.066406 318.625 367.726562 319.777344 367.800781 320.609375 C 367.882812 321.601562 367.800781 321.59375 368.78125 321.394531 C 369.980469 321.15625 369.074219 323.285156 369.664062 323.339844 C 369.953125 323.363281 369.960938 322.976562 369.933594 322.832031 C 369.652344 321.34375 370.941406 321.964844 371.085938 321.820312 C 372.035156 320.886719 373.089844 321.761719 374.082031 321.652344 C 375.546875 321.484375 373.859375 324.546875 375.207031 324.722656 C 375.207031 341.070312 375.203125 357.414062 375.222656 373.757812 C 375.226562 374.980469 397.5 374.535156 1.039062 374.535156 C 1.039062 318.238281 0 331 3.472656 329.605469 C 4.988281 328.996094 7.359375 329.828125 7.539062 329.246094 C 8.105469 327.425781 8.792969 329.125 8.566406 327.792969 C 8.144531 325.28125 10.46875 328.371094 10.605469 326.078125 C 10.617188 325.882812 10.429688 325.597656 10.828125 325.578125 C 11.097656 325.5625 11.414062 325.597656 11.464844 325.238281 C 11.523438 324.847656 11.035156 324.976562 10.910156 324.738281 C 11.050781 324.4375 11.34375 324.511719 11.5 324.570312 C 13.695312 325.394531 17.089844 324.308594 17.914062 325.324219 C 18.175781 325.648438 19.035156 325.523438 19.621094 325.523438 C 21.09375 325.527344 20.191406 327.097656 21.875 326.929688 C 22.101562 326.90625 22.328125 326.933594 22.554688 326.933594 C 23.59375 326.9375 23.582031 326.9375 23.574219 328.078125 C 23.570312 328.4375 23.597656 328.886719 24.160156 328.742188 C 24.710938 328.605469 24.691406 329.359375 25.222656 329.328125 C 26.082031 329.277344 26.992188 329.46875 27.789062 329.101562 C 28.488281 328.777344 29.15625 328.890625 29.828125 328.980469 C 30.800781 329.109375 31.84375 328.597656 32.757812 329.308594 C 33.582031 329.945312 32.515625 325.984375 33.121094 315.113281 C 33.128906 314.976562 33.191406 314.820312 33.046875 314.730469 C 32.269531 314.25 31.902344 313.363281 31.046875 312.804688 C 32.777344 312.339844 33.042969 311.058594 33 309.59375 C 32.917969 307.019531 34.582031 304.269531 36.988281 303.425781 C 37.335938 303.304688 37.820312 302.984375 37.636719 302.40625 C 37.550781 302.136719 37.757812 301.847656 37.847656 301.84375 C 38.699219 301.800781 38.441406 301.164062 38.421875 300.738281 C 38.375 299.761719 38.632812 298.765625 38.257812 297.800781 C 38.203125 297.65625 39.140625 295.796875 37.273438 294.859375 C 40.085938 292.886719 38.511719 293.976562 39.496094 289.507812 C 39.871094 287.808594 42.585938 288.105469 43.511719 286.777344 C 44.042969 286.015625 44.058594 285.972656 43.050781 285.589844 C 44.378906 285.484375 43.601562 284.621094 44.082031 283.375 C 44.285156 282.851562 44.152344 282.636719 43.660156 282.347656 C 42.875 281.886719 43.023438 280.398438 43.824219 279.992188 C 44.398438 279.707031 44.292969 278.445312 43.746094 277.914062 C 43.050781 277.238281 42.28125 276.621094 42.132812 275.515625 C 42.074219 275.09375 41.277344 275.207031 41.011719 274.761719 C 41.042969 274.390625 42.445312 274.65625 42.183594 273.5625 C 42.125 273.320312 42.269531 273.195312 42.515625 273.199219 C 42.550781 273.238281 42.503906 273.402344 42.636719 273.273438 C 42.589844 273.257812 42.539062 273.238281 42.492188 273.222656 C 42.269531 272.167969 44.355469 271.949219 44.226562 270.175781 C 43.964844 266.605469 45.214844 268.390625 44.867188 270.335938 C 44.5625 272.058594 48.078125 273.503906 46.609375 274.449219 C 47.027344 274.746094 47.898438 274.320312 47.941406 274.949219 C 47.96875 275.34375 47.769531 275.253906 46.972656 275.242188 C 46.96875 275.246094 46.933594 275.230469 46.933594 275.230469 L 46.996094 275.242188 C 46.84375 275.734375 46.738281 276.183594 46.429688 276.675781 C 45.890625 277.527344 44.53125 277.976562 44.855469 279.335938 C 44.925781 279.636719 44.832031 279.90625 45.3125 280.050781 C 46.089844 280.289062 46.214844 281.75 45.570312 282.300781 C 45.292969 282.535156 44.824219 282.699219 44.917969 283.121094 C 45.089844 283.894531 44.761719 284.785156 45.414062 285.441406 C 45.574219 285.605469 45.816406 285.785156 45.617188 285.957031 C 44.996094 286.492188 45.488281 286.664062 45.832031 287.011719 C 47.5 288.691406 49.914062 288.390625 49.664062 292.003906 C 49.449219 295.101562 52.171875 295.074219 51.21875 295.800781 C 49.6875 296.96875 50.910156 298.007812 50.621094 298.65625 C 50.167969 299.679688 50.441406 300.765625 50.335938 301.820312 C 50.308594 302.101562 50.585938 302.082031 50.671875 302.246094 C 50.84375 302.566406 51.757812 302.578125 51.09375 303.273438 C 51.058594 303.308594 51.34375 303.601562 51.566406 303.707031 C 54.03125 304.890625 55.214844 306.960938 55.589844 309.714844 C 56.082031 309.628906 55.757812 309.183594 56.089844 309.003906 C 56.257812 310.175781 56.003906 311.355469 56.398438 312.46875 C 56.398438 312.324219 56.199219 280.726562 56.351562 280.703125 C 57.359375 280.558594 58.273438 280.054688 59.304688 280 C 60.558594 279.9375 60.023438 279.359375 59.480469 278.078125 C 60.558594 277.5625 60.414062 278.746094 61.421875 279.6875 C 62.019531 280.242188 62.734375 280.183594 63.074219 278.625 C 63.105469 278.484375 63.125 278.269531 63.28125 278.332031 C 63.847656 278.558594 64.390625 278.277344 64.945312 278.304688 C 65.125 278.316406 65.320312 278.394531 65.488281 278.191406 C 65.875 277.734375 66.277344 277.289062 66.695312 278.195312 C 66.957031 278.761719 67.789062 277.710938 68.296875 278.34375 C 68.328125 278.382812 68.410156 278.429688 68.4375 278.414062 C 70.292969 277.382812 72.242188 278.328125 74.140625 278.152344 C 77.511719 277.835938 78.820312 278.53125 78.429688 277.527344 C 78.363281 277.347656 78.222656 277 78.667969 276.953125 C 80.1875 276.789062 78.316406 278.34375 80.71875 278.316406 C 82.015625 278.304688 82.015625 278.316406 82.121094 279.558594 C 82.136719 279.738281 82.066406 280.019531 82.367188 279.996094 C 83.195312 279.925781 83.90625 280.425781 84.757812 280.386719 C 85.871094 280.335938 86.960938 280.78125 88.097656 280.757812 C 88.652344 280.746094 88.777344 281.097656 88.773438 281.644531 C 88.667969 298.761719 88.84375 313.171875 88.9375 314.363281 C 88.910156 314.382812 88.878906 314.402344 88.851562 314.421875 C 88.910156 314.421875 88.902344 314.445312 88.921875 314.347656 C 89.066406 327.210938 88.449219 327.105469 89.75 327.121094 C 90.378906 327.128906 91.144531 326.804688 91.511719 327.800781 C 91.601562 328.039062 92.488281 328.324219 92.9375 327.980469 C 94.007812 327.15625 95.367188 328.816406 96.109375 327.53125 C 96.140625 327.480469 96.285156 327.441406 96.324219 327.46875 C 97.402344 328.300781 96.675781 327.183594 96.945312 321.929688 C 96.992188 321.039062 97.160156 320.175781 96.953125 319.273438 C 96.859375 318.859375 97.246094 318.769531 97.632812 318.761719 C 98.074219 318.75 98.34375 318.828125 98.292969 319.34375 C 98.007812 322.339844 98.34375 325.328125 98.304688 327.242188 C 98.289062 328.058594 98.835938 327.90625 99.320312 327.894531 C 99.632812 327.890625 99.65625 327.890625 99.632812 327.3125 C 99.5 324.023438 99.4375 320.730469 99.433594 317.441406 C 99.433594 316.472656 98.878906 311.648438 99.734375 311.128906 C 100.019531 310.957031 100.371094 310.953125 100.707031 310.953125 C 102.683594 310.953125 104.65625 310.8125 106.625 310.648438 C 108.152344 310.519531 110.246094 310.730469 111.691406 310.277344 C 112.320312 310.078125 112.359375 309.777344 112.492188 309.203125 C 112.730469 308.171875 112.667969 307.011719 112.6875 305.960938 C 112.785156 300.183594 112.640625 294.398438 112.613281 288.621094 C 112.558594 277.90625 112.59375 267.195312 112.691406 256.480469 C 112.921875 230.917969 111.664062 232.042969 113.640625 231.027344 C 114.941406 230.355469 116.308594 230.925781 117.621094 230.699219 C 119.359375 230.402344 120.792969 231.214844 122.285156 231.875 C 122.558594 231.589844 122.234375 231.121094 122.609375 230.894531 C 122.988281 231.105469 122.261719 232.308594 123.816406 232.550781 C 124.679688 232.683594 125.460938 233.363281 126.28125 233.796875 C 126.578125 233.953125 126.488281 234.234375 126.492188 234.46875 C 126.539062 238.640625 126.28125 239.007812 127.101562 238.402344 C 127.515625 238.097656 127.144531 239.0625 127.644531 239.007812 C 127.992188 238.96875 127.847656 238.65625 127.851562 238.464844 C 127.863281 236.226562 127.886719 233.988281 127.839844 231.75 C 127.804688 230.015625 128.945312 230.914062 129.402344 229.304688 C 129.949219 227.378906 129.992188 226.632812 129.886719 212.753906 C 129.871094 210.292969 131.410156 212.441406 132.195312 208.109375 C 132.328125 207.398438 132.359375 206.671875 132.113281 205.953125 C 131.46875 204.054688 133.019531 201.546875 132.007812 199.410156 C 131.914062 199.222656 131.867188 198.921875 131.953125 198.753906 C 132.847656 197.046875 131.785156 187.542969 132.953125 187.53125 C 133.707031 187.523438 132.886719 188.554688 133.628906 189.847656 C 133.9375 190.378906 133.640625 190.933594 133.636719 191.476562 C 133.636719 193.457031 133.367188 195.488281 133.714844 197.40625 C 134.039062 199.191406 133.300781 200.882812 133.679688 202.585938 C 134.253906 205.179688 133.363281 209.898438 135.03125 209.980469 C 136.378906 210.042969 135.921875 211.171875 136.328125 211.320312 C 137.652344 211.816406 137.179688 211.996094 137.253906 222.832031 C 137.269531 225.03125 137.382812 227.226562 137.347656 229.421875 C 137.339844 230.097656 137.578125 230.480469 138.125 230.636719 C 138.917969 230.863281 138.746094 231.050781 138.773438 235.359375 C 138.773438 235.546875 138.675781 235.773438 138.964844 235.839844 C 139.40625 235.9375 139.207031 235.144531 139.644531 235.300781 C 140.574219 235.632812 141.554688 235.480469 142.507812 235.558594 C 143.574219 235.648438 144.621094 235.957031 145.714844 235.828125 C 146.363281 235.75 146.949219 236.152344 147.578125 236.292969 C 149.152344 236.632812 148.296875 238.433594 148.492188 246.34375 C 148.53125 247.914062 148.75 266.992188 148.464844 267.921875 C 148.457031 267.917969 148.449219 267.910156 148.441406 267.902344 C 148.457031 267.914062 148.46875 267.925781 148.484375 267.9375 C 148.46875 268.050781 148.457031 268.167969 148.441406 268.28125 C 148.40625 268.316406 148.242188 268.269531 148.367188 268.402344 C 148.382812 268.355469 148.402344 268.308594 148.417969 268.257812 C 148.722656 268.828125 149.367188 268.679688 149.816406 268.796875 C 151.0625 269.117188 152.359375 269.160156 153.597656 268.503906 C 154.628906 271.730469 154.378906 271.613281 154.378906 286.574219 C 154.378906 287.648438 154.328125 288.09375 154.738281 288.199219 C 155.15625 288.304688 155.59375 288.109375 155.730469 287.597656 C 155.863281 287.113281 156.011719 287.457031 156.15625 287.582031 C 156.113281 287.558594 156.066406 287.539062 156.023438 287.519531 C 156.019531 287.542969 156.011719 287.570312 156.007812 287.597656 C 156.058594 287.589844 156.105469 287.582031 156.15625 287.574219 C 156.425781 287.773438 155.960938 287.980469 156.183594 288.253906 C 156.324219 288.425781 156.359375 288.601562 156.578125 288.441406 C 158.054688 287.355469 159.0625 288.617188 160.261719 289.125 C 160.425781 288.980469 160.269531 288.730469 160.339844 288.53125 C 160.515625 288.050781 161.199219 288.148438 161.214844 288.574219 C 161.234375 289.179688 161.355469 289.78125 161.34375 290.382812 C 161.332031 290.957031 161.65625 291.167969 162.109375 291.179688 C 166.339844 291.285156 165.929688 291.230469 165.960938 290.722656 C 166.070312 288.835938 165.980469 288.75 166.339844 288.5625 C 166.519531 288.472656 166.71875 288.640625 166.757812 288.757812 C 166.90625 289.183594 167.183594 288.984375 167.46875 289.015625 C 168 289.070312 168.46875 288.414062 169.078125 288.992188 C 169.402344 289.300781 169.9375 288.65625 170.5 288.890625 C 170.710938 288.980469 170.707031 288.375 170.554688 287.957031 C 172.019531 289.386719 172.328125 291.046875 171.976562 292.984375 C 172.433594 292.824219 172.625 292.671875 173.042969 292.980469 C 173.503906 293.320312 174.398438 293.09375 175.101562 293.078125 C 175.269531 293.074219 175.296875 293.207031 175.457031 290.644531 C 175.488281 290.109375 175.878906 290.03125 176.085938 290.355469 C 176.386719 290.832031 176.75 290.695312 177.121094 290.691406 C 178.503906 290.691406 179.878906 290.589844 181.214844 290.175781 C 181.292969 290.152344 181.449219 290.179688 181.453125 290.160156 C 181.683594 289.085938 182.285156 289.777344 182.824219 289.800781 C 183.828125 289.835938 184.871094 290.121094 185.859375 289.613281 C 186.167969 289.457031 186.382812 289.875 186.703125 289.871094 C 187.523438 289.859375 188.34375 289.859375 189.164062 289.878906 C 191.03125 289.921875 190.453125 281.523438 190.578125 320.375 C 190.582031 320.824219 190.371094 321.34375 190.816406 321.730469 L 190.792969 321.707031 C 190.976562 321.832031 191.15625 321.957031 191.339844 322.078125 C 191.332031 322.066406 191.328125 322.054688 191.320312 322.046875 C 191.316406 322.0625 191.3125 322.078125 191.3125 322.09375 C 192.25 322.15625 193.1875 322.003906 194.074219 321.785156 C 195.769531 321.363281 194.492188 319.15625 195.15625 317.042969 C 195.375 316.34375 196.203125 315.863281 196.878906 316.066406 L 196.859375 316.039062 C 196.925781 316.234375 196.996094 316.167969 197.066406 316.042969 L 197.046875 316.066406 C 197.160156 316.066406 197.273438 316.066406 197.382812 316.066406 L 197.367188 316.039062 C 197.429688 316.203125 197.503906 316.09375 197.578125 316.046875 L 197.5625 316.066406 C 197.671875 316.066406 197.785156 316.066406 197.898438 316.066406 L 197.878906 316.042969 C 197.945312 316.207031 198.015625 316.164062 198.085938 316.042969 L 198.070312 316.066406 C 198.257812 315.914062 198.425781 315.703125 198.644531 315.613281 C 200.476562 314.855469 197.664062 314.054688 199.117188 313.933594 C 199.339844 313.917969 199.238281 314.273438 199.261719 307.648438 C 199.265625 306.746094 199.625 306.339844 200.53125 306.398438 C 202.386719 306.519531 204.28125 306.234375 206.078125 306.507812 C 207.589844 306.742188 207.089844 305.925781 207.089844 305.320312 C 207.109375 301.699219 207.089844 298.082031 207.089844 294.460938 C 207.089844 293.300781 208.320312 292.441406 209.359375 292.820312 C 209.210938 290.730469 209.324219 288.617188 209.285156 286.507812 C 209.28125 286.222656 209.566406 286.171875 209.644531 285.964844 L 209.617188 285.980469 C 209.679688 285.914062 209.746094 285.847656 209.8125 285.78125 L 209.785156 285.808594 C 209.828125 285.785156 209.871094 285.761719 209.914062 285.738281 C 209.871094 285.695312 209.828125 285.652344 209.785156 285.609375 L 209.808594 285.632812 C 210.609375 285.050781 211.539062 285.203125 212.4375 285.164062 C 217.34375 284.953125 217.28125 285.335938 217.28125 286.300781 C 217.273438 288.082031 217.273438 289.863281 217.28125 291.640625 C 217.285156 292.199219 217.523438 292.53125 218.144531 292.421875 L 218.121094 292.445312 C 218.308594 292.246094 218.511719 292.390625 218.710938 292.417969 L 218.726562 292.386719 C 218.828125 293.238281 219.238281 292.1875 219.425781 292.5 L 219.421875 292.484375 C 219.703125 292.492188 219.660156 293.289062 220.152344 292.78125 Z M 220.132812 292.800781 " fill-opacity="1" fill-rule="nonzero"/></g><path fill="#000000" d="M 225.035156 328.042969 C 224.703125 328.226562 224.746094 327.875 224.9375 327.933594 C 224.976562 327.945312 225 328.003906 225.035156 328.042969 Z M 225.035156 328.042969 " fill-opacity="1" fill-rule="nonzero"/><path fill="#000000" d="M 150.109375 268.734375 L 150.050781 268.703125 L 150.117188 268.6875 Z M 150.109375 268.734375 " fill-opacity="1" fill-rule="nonzero"/><path fill="#000000" d="M 226.199219 315.457031 L 226.273438 315.433594 L 226.265625 315.488281 Z M 226.199219 315.457031 " fill-opacity="1" fill-rule="nonzero"/><path fill="#000000" d="M 222.839844 327.71875 C 222.765625 327.703125 222.644531 327.710938 222.632812 327.675781 C 222.5625 327.484375 222.671875 327.648438 222.820312 327.71875 C 222.824219 327.71875 222.839844 327.71875 222.839844 327.71875 Z M 222.839844 327.71875 " fill-opacity="1" fill-rule="nonzero"/><path fill="#000000" d="M 224.492188 327.890625 C 224.476562 327.785156 224.464844 327.679688 224.453125 327.570312 C 224.65625 327.613281 224.476562 327.652344 224.492188 327.886719 C 224.492188 327.886719 224.492188 327.890625 224.492188 327.890625 Z M 224.492188 327.890625 " fill-opacity="1" fill-rule="nonzero"/><path fill="#000000" d="M 30.089844 328.707031 L 30.140625 328.730469 L 30.085938 328.746094 Z M 30.089844 328.707031 " fill-opacity="1" fill-rule="nonzero"/><path fill="#000000" d="M 246.5 249.417969 C 246.6875 249.472656 246.589844 249.53125 246.503906 249.585938 C 246.503906 249.585938 246.53125 249.601562 246.53125 249.601562 C 246.527344 249.535156 246.527344 249.464844 246.527344 249.398438 Z M 246.5 249.417969 " fill-opacity="1" fill-rule="nonzero"/><path fill="#000000" d="M 331.359375 282.515625 C 331.375 282.554688 331.386719 282.59375 331.402344 282.632812 C 331.4375 282.59375 331.476562 282.554688 331.511719 282.515625 C 331.511719 282.515625 331.535156 282.554688 331.535156 282.554688 C 331.46875 282.554688 331.398438 282.554688 331.332031 282.554688 Z M 331.359375 282.515625 " fill-opacity="1" fill-rule="nonzero"/><path fill="#000000" d="M 209.644531 285.792969 C 209.640625 285.679688 209.703125 285.632812 209.8125 285.632812 C 209.8125 285.632812 209.789062 285.535156 209.789062 285.808594 C 209.828125 285.769531 209.683594 285.78125 209.617188 285.78125 Z M 209.644531 285.792969 " fill-opacity="1" fill-rule="nonzero"/><path fill="#000000" d="M 209.644531 285.964844 C 209.511719 285.910156 209.503906 285.851562 209.644531 285.792969 C 209.644531 285.792969 209.617188 285.78125 209.617188 285.78125 C 209.617188 285.847656 209.617188 285.914062 209.617188 285.980469 Z M 209.644531 285.964844 " fill-opacity="1" fill-rule="nonzero"/><path fill="#000000" d="M 181.019531 289.621094 C 181.011719 289.636719 181 289.652344 180.992188 289.667969 C 180.96875 289.652344 180.941406 289.632812 180.917969 289.617188 C 180.984375 289.558594 180.957031 289.554688 181.019531 289.621094 Z M 181.019531 289.621094 " fill-opacity="1" fill-rule="nonzero"/><path fill="#000000" d="M 218.144531 292.421875 C 218.101562 292.402344 218.058594 292.386719 218.015625 292.367188 C 218.039062 292.347656 218.058594 292.332031 218.078125 292.3125 C 218.097656 292.367188 218.113281 292.457031 218.144531 292.421875 Z M 218.144531 292.421875 " fill-opacity="1" fill-rule="nonzero"/><path fill="#000000" d="M 218.710938 292.414062 C 218.703125 292.398438 218.695312 292.378906 218.683594 292.359375 C 218.699219 292.371094 218.710938 292.382812 218.726562 292.390625 C 218.726562 292.386719 218.710938 292.414062 218.710938 292.414062 Z M 218.710938 292.414062 " fill-opacity="1" fill-rule="nonzero"/><path fill="#000000" d="M 219.425781 292.5 C 219.488281 292.507812 219.550781 292.511719 219.613281 292.519531 C 219.605469 292.542969 219.597656 292.566406 219.589844 292.589844 C 219.535156 292.554688 219.480469 292.523438 219.421875 292.484375 C 219.421875 292.484375 219.425781 292.5 219.425781 292.5 Z M 219.425781 292.5 " fill-opacity="1" fill-rule="nonzero"/><path fill="#000000" d="M 220.152344 292.78125 C 220.117188 292.75 220.082031 292.722656 220.046875 292.691406 C 220.074219 292.679688 220.105469 292.671875 220.136719 292.660156 C 220.136719 292.707031 220.132812 292.753906 220.132812 292.800781 C 220.132812 292.800781 220.152344 292.78125 220.152344 292.78125 Z M 220.152344 292.78125 " fill-opacity="1" fill-rule="nonzero"/><path fill="#000000" d="M 196.878906 316.066406 C 196.910156 316.019531 196.9375 315.976562 196.964844 315.929688 C 196.992188 315.976562 197.019531 316.019531 197.046875 316.066406 C 197.046875 316.066406 197.132812 316.042969 196.859375 316.039062 Z M 196.878906 316.066406 " fill-opacity="1" fill-rule="nonzero"/><path fill="#000000" d="M 197.386719 316.066406 C 197.445312 315.925781 197.503906 315.910156 197.5625 316.066406 C 197.5625 316.066406 197.578125 316.046875 197.578125 316.046875 C 197.507812 316.042969 197.4375 316.042969 197.367188 316.039062 Z M 197.386719 316.066406 " fill-opacity="1" fill-rule="nonzero"/><path fill="#000000" d="M 197.898438 316.066406 C 197.953125 315.90625 198.011719 315.898438 198.070312 316.066406 C 198.070312 316.066406 198.15625 316.042969 197.878906 316.039062 Z M 197.898438 316.066406 " fill-opacity="1" fill-rule="nonzero"/><path fill="#000000" d="M 242.5625 249.070312 C 242.605469 249.042969 242.648438 249.015625 242.691406 248.988281 C 242.648438 248.960938 242.605469 248.933594 242.5625 248.90625 C 242.5625 248.90625 242.597656 248.886719 242.597656 248.886719 C 242.597656 248.953125 242.597656 249.023438 242.597656 249.09375 Z M 242.5625 249.070312 " fill-opacity="1" fill-rule="nonzero"/><path fill="#000000" d="M 190.816406 321.730469 C 190.808594 321.675781 190.800781 321.625 190.792969 321.570312 C 190.957031 321.617188 190.800781 321.660156 190.792969 321.707031 C 190.792969 321.707031 190.816406 321.730469 190.816406 321.730469 Z M 190.816406 321.730469 " fill-opacity="1" fill-rule="nonzero"/><path fill="#000000" d="M 240.0625 249.847656 C 240.0625 249.863281 240.066406 249.882812 240.066406 249.898438 C 240.058594 249.890625 240.046875 249.882812 240.039062 249.875 C 240.039062 249.871094 240.0625 249.847656 240.0625 249.847656 Z M 240.0625 249.847656 " fill-opacity="1" fill-rule="nonzero"/><g transform="matrix(1, 0, 0, 1, 39, 109)"><g clip-path="url(#856844b1d5)"><g fill="#ff00ff" fill-opacity="1"><g transform="translate(6.186842, 67.823516)"><g><path d="M 21.734375 0.59375 C 19.410156 0.59375 17.140625 0.273438 14.921875 -0.359375 C 12.710938 -1.003906 10.6875 -1.960938 8.84375 -3.234375 C 7 -4.515625 5.445312 -6.117188 4.1875 -8.046875 C 2.925781 -9.972656 2.085938 -12.222656 1.671875 -14.796875 L 11.015625 -17.171875 C 11.242188 -14.992188 11.867188 -13.210938 12.890625 -11.828125 C 13.921875 -10.441406 15.210938 -9.414062 16.765625 -8.75 C 18.328125 -8.082031 20.035156 -7.75 21.890625 -7.75 C 23.765625 -7.75 25.335938 -8.046875 26.609375 -8.640625 C 27.890625 -9.234375 28.863281 -10.035156 29.53125 -11.046875 C 30.195312 -12.066406 30.53125 -13.195312 30.53125 -14.4375 C 30.53125 -15.789062 30.171875 -16.945312 29.453125 -17.90625 C 28.742188 -18.875 27.785156 -19.710938 26.578125 -20.421875 C 25.378906 -21.128906 24.023438 -21.785156 22.515625 -22.390625 C 21.003906 -22.992188 19.445312 -23.609375 17.84375 -24.234375 C 16.238281 -24.867188 14.679688 -25.585938 13.171875 -26.390625 C 11.660156 -27.203125 10.304688 -28.15625 9.109375 -29.25 C 7.910156 -30.351562 6.953125 -31.675781 6.234375 -33.21875 C 5.515625 -34.769531 5.15625 -36.609375 5.15625 -38.734375 C 5.15625 -41.054688 5.585938 -43.113281 6.453125 -44.90625 C 7.316406 -46.695312 8.507812 -48.210938 10.03125 -49.453125 C 11.550781 -50.691406 13.296875 -51.625 15.265625 -52.25 C 17.234375 -52.882812 19.316406 -53.203125 21.515625 -53.203125 C 24.753906 -53.203125 27.769531 -52.460938 30.5625 -50.984375 C 33.363281 -49.515625 35.664062 -47.1875 37.46875 -44 L 29.640625 -39.21875 C 28.722656 -41 27.519531 -42.375 26.03125 -43.34375 C 24.550781 -44.320312 22.9375 -44.8125 21.1875 -44.8125 C 19.945312 -44.8125 18.828125 -44.578125 17.828125 -44.109375 C 16.828125 -43.640625 16.035156 -42.984375 15.453125 -42.140625 C 14.867188 -41.304688 14.578125 -40.332031 14.578125 -39.21875 C 14.578125 -37.976562 14.9375 -36.921875 15.65625 -36.046875 C 16.375 -35.171875 17.332031 -34.40625 18.53125 -33.75 C 19.726562 -33.09375 21.082031 -32.472656 22.59375 -31.890625 C 24.101562 -31.304688 25.660156 -30.695312 27.265625 -30.0625 C 28.878906 -29.4375 30.4375 -28.710938 31.9375 -27.890625 C 33.445312 -27.078125 34.800781 -26.109375 36 -24.984375 C 37.207031 -23.859375 38.164062 -22.503906 38.875 -20.921875 C 39.59375 -19.335938 39.953125 -17.457031 39.953125 -15.28125 C 39.953125 -12.8125 39.476562 -10.59375 38.53125 -8.625 C 37.582031 -6.65625 36.269531 -4.984375 34.59375 -3.609375 C 32.925781 -2.242188 30.988281 -1.203125 28.78125 -0.484375 C 26.582031 0.234375 24.234375 0.59375 21.734375 0.59375 Z M 21.734375 0.59375 "/></g></g></g><g fill="#ff00ff" fill-opacity="1"><g transform="translate(79.983668, 67.823516)"><g><path d="M 16.65625 0 L 0.921875 -52.421875 L 10.71875 -52.421875 L 21.890625 -13.84375 L 33.5 -49.375 L 40.8125 -49.375 L 52.421875 -13.84375 L 63.59375 -52.421875 L 73.390625 -52.421875 L 57.65625 0 L 48.5625 0 L 37.140625 -34.5 L 25.75 0 Z M 16.65625 0 "/></g></g></g><g fill="#ff00ff" fill-opacity="1"><g transform="translate(185.907055, 67.823516)"><g><path d="M 6.75 0 L 6.75 -52.421875 L 16.171875 -52.421875 L 16.171875 -8.90625 L 38.578125 -8.90625 L 38.578125 0 Z M 6.75 0 "/></g></g></g><g fill="#ff00ff" fill-opacity="1"><g transform="translate(250.873876, 67.823516)"><g><path d="M 17.171875 0 L 17.171875 -44 L 0.734375 -44 L 0.734375 -52.421875 L 43 -52.421875 L 43 -44 L 26.609375 -44 L 26.609375 0 Z M 17.171875 0 "/></g></g></g><g fill="#00ffff" fill-opacity="1"><g transform="translate(2.291743, 67.823516)"><g><path d="M 21.734375 0.59375 C 19.410156 0.59375 17.140625 0.273438 14.921875 -0.359375 C 12.710938 -1.003906 10.6875 -1.960938 8.84375 -3.234375 C 7 -4.515625 5.445312 -6.117188 4.1875 -8.046875 C 2.925781 -9.972656 2.085938 -12.222656 1.671875 -14.796875 L 11.015625 -17.171875 C 11.242188 -14.992188 11.867188 -13.210938 12.890625 -11.828125 C 13.921875 -10.441406 15.210938 -9.414062 16.765625 -8.75 C 18.328125 -8.082031 20.035156 -7.75 21.890625 -7.75 C 23.765625 -7.75 25.335938 -8.046875 26.609375 -8.640625 C 27.890625 -9.234375 28.863281 -10.035156 29.53125 -11.046875 C 30.195312 -12.066406 30.53125 -13.195312 30.53125 -14.4375 C 30.53125 -15.789062 30.171875 -16.945312 29.453125 -17.90625 C 28.742188 -18.875 27.785156 -19.710938 26.578125 -20.421875 C 25.378906 -21.128906 24.023438 -21.785156 22.515625 -22.390625 C 21.003906 -22.992188 19.445312 -23.609375 17.84375 -24.234375 C 16.238281 -24.867188 14.679688 -25.585938 13.171875 -26.390625 C 11.660156 -27.203125 10.304688 -28.15625 9.109375 -29.25 C 7.910156 -30.351562 6.953125 -31.675781 6.234375 -33.21875 C 5.515625 -34.769531 5.15625 -36.609375 5.15625 -38.734375 C 5.15625 -41.054688 5.585938 -43.113281 6.453125 -44.90625 C 7.316406 -46.695312 8.507812 -48.210938 10.03125 -49.453125 C 11.550781 -50.691406 13.296875 -51.625 15.265625 -52.25 C 17.234375 -52.882812 19.316406 -53.203125 21.515625 -53.203125 C 24.753906 -53.203125 27.769531 -52.460938 30.5625 -50.984375 C 33.363281 -49.515625 35.664062 -47.1875 37.46875 -44 L 29.640625 -39.21875 C 28.722656 -41 27.519531 -42.375 26.03125 -43.34375 C 24.550781 -44.320312 22.9375 -44.8125 21.1875 -44.8125 C 19.945312 -44.8125 18.828125 -44.578125 17.828125 -44.109375 C 16.828125 -43.640625 16.035156 -42.984375 15.453125 -42.140625 C 14.867188 -41.304688 14.578125 -40.332031 14.578125 -39.21875 C 14.578125 -37.976562 14.9375 -36.921875 15.65625 -36.046875 C 16.375 -35.171875 17.332031 -34.40625 18.53125 -33.75 C 19.726562 -33.09375 21.082031 -32.472656 22.59375 -31.890625 C 24.101562 -31.304688 25.660156 -30.695312 27.265625 -30.0625 C 28.878906 -29.4375 30.4375 -28.710938 31.9375 -27.890625 C 33.445312 -27.078125 34.800781 -26.109375 36 -24.984375 C 37.207031 -23.859375 38.164062 -22.503906 38.875 -20.921875 C 39.59375 -19.335938 39.953125 -17.457031 39.953125 -15.28125 C 39.953125 -12.8125 39.476562 -10.59375 38.53125 -8.625 C 37.582031 -6.65625 36.269531 -4.984375 34.59375 -3.609375 C 32.925781 -2.242188 30.988281 -1.203125 28.78125 -0.484375 C 26.582031 0.234375 24.234375 0.59375 21.734375 0.59375 Z M 21.734375 0.59375 "/></g></g></g><g fill="#00ffff" fill-opacity="1"><g transform="translate(76.088568, 67.823516)"><g><path d="M 16.65625 0 L 0.921875 -52.421875 L 10.71875 -52.421875 L 21.890625 -13.84375 L 33.5 -49.375 L 40.8125 -49.375 L 52.421875 -13.84375 L 63.59375 -52.421875 L 73.390625 -52.421875 L 57.65625 0 L 48.5625 0 L 37.140625 -34.5 L 25.75 0 Z M 16.65625 0 "/></g></g></g><g fill="#00ffff" fill-opacity="1"><g transform="translate(182.011955, 67.823516)"><g><path d="M 6.75 0 L 6.75 -52.421875 L 16.171875 -52.421875 L 16.171875 -8.90625 L 38.578125 -8.90625 L 38.578125 0 Z M 6.75 0 "/></g></g></g><g fill="#00ffff" fill-opacity="1"><g transform="translate(246.978776, 67.823516)"><g><path d="M 17.171875 0 L 17.171875 -44 L 0.734375 -44 L 0.734375 -52.421875 L 43 -52.421875 L 43 -44 L 26.609375 -44 L 26.609375 0 Z M 17.171875 0 "/></g></g></g><g fill="#0f4c81" fill-opacity="1"><g transform="translate(4.239292, 67.823516)"><g><path d="M 21.734375 0.59375 C 19.410156 0.59375 17.140625 0.273438 14.921875 -0.359375 C 12.710938 -1.003906 10.6875 -1.960938 8.84375 -3.234375 C 7 -4.515625 5.445312 -6.117188 4.1875 -8.046875 C 2.925781 -9.972656 2.085938 -12.222656 1.671875 -14.796875 L 11.015625 -17.171875 C 11.242188 -14.992188 11.867188 -13.210938 12.890625 -11.828125 C 13.921875 -10.441406 15.210938 -9.414062 16.765625 -8.75 C 18.328125 -8.082031 20.035156 -7.75 21.890625 -7.75 C 23.765625 -7.75 25.335938 -8.046875 26.609375 -8.640625 C 27.890625 -9.234375 28.863281 -10.035156 29.53125 -11.046875 C 30.195312 -12.066406 30.53125 -13.195312 30.53125 -14.4375 C 30.53125 -15.789062 30.171875 -16.945312 29.453125 -17.90625 C 28.742188 -18.875 27.785156 -19.710938 26.578125 -20.421875 C 25.378906 -21.128906 24.023438 -21.785156 22.515625 -22.390625 C 21.003906 -22.992188 19.445312 -23.609375 17.84375 -24.234375 C 16.238281 -24.867188 14.679688 -25.585938 13.171875 -26.390625 C 11.660156 -27.203125 10.304688 -28.15625 9.109375 -29.25 C 7.910156 -30.351562 6.953125 -31.675781 6.234375 -33.21875 C 5.515625 -34.769531 5.15625 -36.609375 5.15625 -38.734375 C 5.15625 -41.054688 5.585938 -43.113281 6.453125 -44.90625 C 7.316406 -46.695312 8.507812 -48.210938 10.03125 -49.453125 C 11.550781 -50.691406 13.296875 -51.625 15.265625 -52.25 C 17.234375 -52.882812 19.316406 -53.203125 21.515625 -53.203125 C 24.753906 -53.203125 27.769531 -52.460938 30.5625 -50.984375 C 33.363281 -49.515625 35.664062 -47.1875 37.46875 -44 L 29.640625 -39.21875 C 28.722656 -41 27.519531 -42.375 26.03125 -43.34375 C 24.550781 -44.320312 22.9375 -44.8125 21.1875 -44.8125 C 19.945312 -44.8125 18.828125 -44.578125 17.828125 -44.109375 C 16.828125 -43.640625 16.035156 -42.984375 15.453125 -42.140625 C 14.867188 -41.304688 14.578125 -40.332031 14.578125 -39.21875 C 14.578125 -37.976562 14.9375 -36.921875 15.65625 -36.046875 C 16.375 -35.171875 17.332031 -34.40625 18.53125 -33.75 C 19.726562 -33.09375 21.082031 -32.472656 22.59375 -31.890625 C 24.101562 -31.304688 25.660156 -30.695312 27.265625 -30.0625 C 28.878906 -29.4375 30.4375 -28.710938 31.9375 -27.890625 C 33.445312 -27.078125 34.800781 -26.109375 36 -24.984375 C 37.207031 -23.859375 38.164062 -22.503906 38.875 -20.921875 C 39.59375 -19.335938 39.953125 -17.457031 39.953125 -15.28125 C 39.953125 -12.8125 39.476562 -10.59375 38.53125 -8.625 C 37.582031 -6.65625 36.269531 -4.984375 34.59375 -3.609375 C 32.925781 -2.242188 30.988281 -1.203125 28.78125 -0.484375 C 26.582031 0.234375 24.234375 0.59375 21.734375 0.59375 Z M 21.734375 0.59375 "/></g></g></g><g fill="#0f4c81" fill-opacity="1"><g transform="translate(78.036118, 67.823516)"><g><path d="M 16.65625 0 L 0.921875 -52.421875 L 10.71875 -52.421875 L 21.890625 -13.84375 L 33.5 -49.375 L 40.8125 -49.375 L 52.421875 -13.84375 L 63.59375 -52.421875 L 73.390625 -52.421875 L 57.65625 0 L 48.5625 0 L 37.140625 -34.5 L 25.75 0 Z M 16.65625 0 "/></g></g></g><g fill="#0f4c81" fill-opacity="1"><g transform="translate(183.959505, 67.823516)"><g><path d="M 6.75 0 L 6.75 -52.421875 L 16.171875 -52.421875 L 16.171875 -8.90625 L 38.578125 -8.90625 L 38.578125 0 Z M 6.75 0 "/></g></g></g><g fill="#0f4c81" fill-opacity="1"><g transform="translate(248.926326, 67.823516)"><g><path d="M 17.171875 0 L 17.171875 -44 L 0.734375 -44 L 0.734375 -52.421875 L 43 -52.421875 L 43 -44 L 26.609375 -44 L 26.609375 0 Z M 17.171875 0 "/></g></g></g></g></g></svg>