<svg xmlns="http://www.w3.org/2000/svg" xmlns:xlink="http://www.w3.org/1999/xlink" width="500" zoomAndPan="magnify" viewBox="0 0 375 374.999991" height="500" preserveAspectRatio="xMidYMid meet" version="1.0"><defs><g/><clipPath id="cb871a1ab0"><path d="M 0 272.039062 L 375 272.039062 L 375 374.789062 L 0 374.789062 Z M 0 272.039062 " clip-rule="nonzero"/></clipPath><clipPath id="ab395acd9d"><path d="M 37.5 160.816406 L 109.5 160.816406 L 109.5 214.066406 L 37.5 214.066406 Z M 37.5 160.816406 " clip-rule="nonzero"/></clipPath><clipPath id="69572264a7"><path d="M 82 178 L 109.5 178 L 109.5 197 L 82 197 Z M 82 178 " clip-rule="nonzero"/></clipPath><clipPath id="dc7132d800"><path d="M 37.5 161 L 70 161 L 70 193 L 37.5 193 Z M 37.5 161 " clip-rule="nonzero"/></clipPath><clipPath id="2d67008c68"><path d="M 37.5 161 L 59 161 L 59 182 L 37.5 182 Z M 37.5 161 " clip-rule="nonzero"/></clipPath><clipPath id="24a548db5c"><rect x="0" width="221" y="0" height="31"/></clipPath></defs><g clip-path="url(#cb871a1ab0)"><path fill="#000000" d="M 252.992188 272.058594 L 252.992188 287.621094 L 251.4375 287.621094 L 249.875 301.632812 L 248.316406 301.632812 L 248.316406 315.644531 L 246.757812 315.644531 L 246.757812 360.785156 L 235.839844 360.785156 L 235.839844 354.558594 L 229.601562 354.558594 L 229.601562 343.664062 L 217.121094 343.664062 L 217.121094 353.003906 L 215.5625 353.003906 L 215.5625 357.671875 L 209.324219 357.671875 L 209.324219 338.992188 L 206.203125 338.992188 L 206.203125 334.324219 L 196.847656 334.324219 L 196.847656 300.074219 L 184.367188 300.074219 L 184.367188 304.746094 L 181.25 304.746094 L 181.25 317.199219 L 178.128906 317.199219 L 178.128906 303.1875 L 167.210938 303.1875 L 167.210938 312.53125 L 165.652344 312.53125 L 165.652344 324.984375 L 164.09375 324.984375 L 164.09375 334.324219 L 157.855469 334.324219 L 157.855469 323.425781 L 156.292969 323.425781 L 156.292969 318.757812 L 151.613281 318.757812 L 151.613281 309.417969 L 142.257812 309.417969 L 142.257812 293.851562 L 140.695312 293.851562 L 140.695312 309.417969 L 131.339844 309.417969 L 131.339844 321.871094 L 118.859375 321.871094 L 118.859375 328.097656 L 114.183594 328.097656 L 114.183594 320.3125 L 95.464844 320.3125 L 95.464844 329.652344 L 90.785156 329.652344 L 90.785156 332.765625 L 89.226562 332.765625 L 89.226562 340.550781 L 84.546875 340.550781 L 84.546875 320.3125 L 79.867188 320.3125 L 79.867188 309.414062 L 76.75 307.546875 L 76.75 289.179688 L 75.1875 289.179688 L 75.1875 306.613281 L 72.070312 304.746094 L 72.070312 312.53125 L 65.832031 315.644531 L 65.832031 332.765625 L 64.273438 332.765625 L 64.273438 343.664062 L 59.59375 343.664062 L 59.59375 334.324219 L 56.472656 321.871094 L 53.355469 334.324219 L 53.355469 337.4375 L 47.113281 337.4375 L 47.113281 353.003906 L 42.4375 353.003906 L 42.4375 321.871094 L 26.839844 321.871094 L 26.839844 346.777344 L 19.039062 346.777344 L 19.039062 340.550781 L 17.480469 340.550781 L 17.480469 331.210938 L 5.003906 331.210938 L 5.003906 338.992188 L 0.324219 338.992188 L 0.324219 374.796875 L 374.652344 374.796875 L 374.652344 328.097656 L 357.496094 328.097656 L 357.496094 345.21875 L 345.019531 345.21875 L 345.019531 338.992188 L 334.101562 338.992188 L 334.101562 329.652344 L 327.863281 329.652344 L 327.863281 312.53125 L 309.144531 315.644531 L 309.144531 338.992188 L 291.988281 338.992188 L 291.988281 342.105469 L 288.867188 342.105469 L 288.867188 331.210938 L 274.832031 331.210938 L 274.832031 351.445312 L 270.152344 351.445312 L 270.152344 345.21875 L 260.792969 345.21875 L 260.792969 315.644531 L 259.234375 315.644531 L 259.234375 301.632812 L 257.675781 301.632812 L 256.113281 287.621094 L 254.554688 287.621094 L 254.554688 272.058594 Z M 252.992188 272.058594 " fill-opacity="1" fill-rule="evenodd"/></g><g clip-path="url(#ab395acd9d)"><path fill="#ffffff" d="M 43.582031 162.734375 C 41.394531 162.734375 39.617188 164.515625 39.617188 166.703125 L 39.617188 208.191406 C 39.617188 210.382812 41.394531 212.167969 43.582031 212.167969 L 103.289062 212.167969 C 105.476562 212.167969 107.253906 210.382812 107.253906 208.191406 L 107.253906 166.703125 C 107.253906 164.515625 105.476562 162.734375 103.289062 162.734375 Z M 103.289062 214.113281 L 43.582031 214.113281 C 40.324219 214.113281 37.671875 211.457031 37.671875 208.191406 L 37.671875 166.703125 C 37.671875 163.441406 40.324219 160.792969 43.582031 160.792969 L 103.289062 160.792969 C 106.546875 160.792969 109.199219 163.441406 109.199219 166.703125 L 109.199219 208.191406 C 109.199219 211.457031 106.546875 214.113281 103.289062 214.113281 " fill-opacity="1" fill-rule="nonzero"/></g><g clip-path="url(#69572264a7)"><path fill="#ffffff" d="M 91.574219 180.769531 C 89.789062 180.769531 88.117188 181.464844 86.855469 182.71875 C 85.59375 183.984375 84.894531 185.664062 84.894531 187.449219 C 84.894531 191.132812 87.890625 194.132812 91.574219 194.132812 L 107.253906 194.132812 L 107.253906 180.769531 Z M 109.199219 196.078125 L 91.574219 196.078125 C 86.820312 196.078125 82.953125 192.207031 82.953125 187.449219 C 82.953125 185.144531 83.851562 182.976562 85.484375 181.34375 C 87.109375 179.71875 89.269531 178.824219 91.574219 178.824219 L 109.199219 178.824219 L 109.199219 196.078125 " fill-opacity="1" fill-rule="nonzero"/></g><path fill="#ffffff" d="M 91.710938 184.746094 C 90.222656 184.746094 89.007812 185.960938 89.007812 187.453125 C 89.007812 188.941406 90.222656 190.15625 91.710938 190.15625 C 93.203125 190.15625 94.414062 188.941406 94.414062 187.453125 C 94.414062 185.960938 93.203125 184.746094 91.710938 184.746094 Z M 91.710938 192.097656 C 89.148438 192.097656 87.0625 190.015625 87.0625 187.453125 C 87.0625 184.886719 89.148438 182.804688 91.710938 182.804688 C 94.273438 182.804688 96.359375 184.886719 96.359375 187.453125 C 96.359375 190.015625 94.273438 192.097656 91.710938 192.097656 " fill-opacity="1" fill-rule="nonzero"/><g clip-path="url(#dc7132d800)"><path fill="#ffffff" d="M 39.332031 192.828125 L 37.957031 191.453125 L 68.335938 161.074219 L 69.710938 162.449219 L 39.332031 192.828125 " fill-opacity="1" fill-rule="nonzero"/></g><g clip-path="url(#2d67008c68)"><path fill="#ffffff" d="M 39.332031 181.28125 L 37.957031 179.90625 L 56.796875 161.074219 L 58.171875 162.449219 L 39.332031 181.28125 " fill-opacity="1" fill-rule="nonzero"/></g><g transform="matrix(1, 0, 0, 1, 127, 172)"><g clip-path="url(#24a548db5c)"><g fill="#ff00ff" fill-opacity="1"><g transform="translate(2.316529, 22.388551)"><g><path d="M 6.9375 0.1875 C 6.195312 0.1875 5.472656 0.0859375 4.765625 -0.109375 C 4.054688 -0.316406 3.40625 -0.625 2.8125 -1.03125 C 2.226562 -1.4375 1.734375 -1.945312 1.328125 -2.5625 C 0.929688 -3.1875 0.664062 -3.90625 0.53125 -4.71875 L 3.515625 -5.484375 C 3.585938 -4.785156 3.785156 -4.210938 4.109375 -3.765625 C 4.441406 -3.328125 4.851562 -3 5.34375 -2.78125 C 5.84375 -2.570312 6.390625 -2.46875 6.984375 -2.46875 C 7.585938 -2.46875 8.09375 -2.5625 8.5 -2.75 C 8.90625 -2.945312 9.210938 -3.207031 9.421875 -3.53125 C 9.640625 -3.851562 9.75 -4.210938 9.75 -4.609375 C 9.75 -5.035156 9.632812 -5.40625 9.40625 -5.71875 C 9.175781 -6.03125 8.867188 -6.296875 8.484375 -6.515625 C 8.097656 -6.742188 7.664062 -6.953125 7.1875 -7.140625 C 6.707031 -7.335938 6.207031 -7.535156 5.6875 -7.734375 C 5.175781 -7.941406 4.679688 -8.171875 4.203125 -8.421875 C 3.722656 -8.679688 3.289062 -8.984375 2.90625 -9.328125 C 2.519531 -9.679688 2.210938 -10.101562 1.984375 -10.59375 C 1.753906 -11.09375 1.640625 -11.679688 1.640625 -12.359375 C 1.640625 -13.097656 1.773438 -13.753906 2.046875 -14.328125 C 2.328125 -14.898438 2.710938 -15.382812 3.203125 -15.78125 C 3.691406 -16.175781 4.25 -16.472656 4.875 -16.671875 C 5.5 -16.878906 6.164062 -16.984375 6.875 -16.984375 C 7.90625 -16.984375 8.863281 -16.75 9.75 -16.28125 C 10.644531 -15.8125 11.378906 -15.066406 11.953125 -14.046875 L 9.453125 -12.515625 C 9.160156 -13.085938 8.78125 -13.523438 8.3125 -13.828125 C 7.84375 -14.140625 7.328125 -14.296875 6.765625 -14.296875 C 6.367188 -14.296875 6.007812 -14.222656 5.6875 -14.078125 C 5.363281 -13.929688 5.109375 -13.722656 4.921875 -13.453125 C 4.742188 -13.179688 4.65625 -12.867188 4.65625 -12.515625 C 4.65625 -12.117188 4.769531 -11.78125 5 -11.5 C 5.226562 -11.21875 5.53125 -10.972656 5.90625 -10.765625 C 6.289062 -10.554688 6.722656 -10.359375 7.203125 -10.171875 C 7.691406 -9.992188 8.191406 -9.800781 8.703125 -9.59375 C 9.210938 -9.394531 9.707031 -9.164062 10.1875 -8.90625 C 10.675781 -8.644531 11.109375 -8.332031 11.484375 -7.96875 C 11.867188 -7.613281 12.175781 -7.179688 12.40625 -6.671875 C 12.632812 -6.171875 12.75 -5.570312 12.75 -4.875 C 12.75 -4.082031 12.597656 -3.375 12.296875 -2.75 C 11.992188 -2.125 11.578125 -1.59375 11.046875 -1.15625 C 10.515625 -0.71875 9.894531 -0.382812 9.1875 -0.15625 C 8.488281 0.0703125 7.738281 0.1875 6.9375 0.1875 Z M 6.9375 0.1875 "/></g></g></g><g fill="#ff00ff" fill-opacity="1"><g transform="translate(19.046912, 22.388551)"><g><path d="M 2.15625 0 L 2.15625 -16.734375 L 6.203125 -16.734375 L 10.640625 -4.828125 L 15.078125 -16.734375 L 19.140625 -16.734375 L 19.140625 0 L 16.25 0 L 16.25 -12.515625 L 12.09375 -1.453125 L 9.1875 -1.453125 L 5.046875 -12.515625 L 5.046875 0 Z M 2.15625 0 "/></g></g></g><g fill="#ff00ff" fill-opacity="1"><g transform="translate(43.600566, 22.388551)"><g><path d="M 0.140625 0 L 6.84375 -16.734375 L 9.09375 -16.734375 L 15.765625 0 L 12.515625 0 L 11.21875 -3.640625 L 4.71875 -3.640625 L 3.421875 0 Z M 5.75 -6.203125 L 10.203125 -6.203125 L 7.984375 -12.3125 Z M 5.75 -6.203125 "/></g></g></g><g fill="#ff00ff" fill-opacity="1"><g transform="translate(62.769066, 22.388551)"><g><path d="M 2.15625 0.03125 L 2.15625 -16.734375 L 7.5625 -16.734375 C 8.34375 -16.734375 9.082031 -16.625 9.78125 -16.40625 C 10.476562 -16.1875 11.09375 -15.863281 11.625 -15.4375 C 12.164062 -15.019531 12.585938 -14.503906 12.890625 -13.890625 C 13.203125 -13.285156 13.359375 -12.59375 13.359375 -11.8125 C 13.359375 -11.101562 13.21875 -10.457031 12.9375 -9.875 C 12.65625 -9.300781 12.265625 -8.804688 11.765625 -8.390625 C 11.273438 -7.984375 10.71875 -7.671875 10.09375 -7.453125 L 14.734375 0.03125 L 11.296875 0.03125 L 7.171875 -7.15625 L 5.15625 -7.15625 L 5.15625 0.03125 Z M 5.1875 -9.609375 L 7.84375 -9.609375 C 8.632812 -9.640625 9.253906 -9.847656 9.703125 -10.234375 C 10.160156 -10.628906 10.390625 -11.140625 10.390625 -11.765625 C 10.390625 -12.453125 10.132812 -13.003906 9.625 -13.421875 C 9.125 -13.835938 8.445312 -14.046875 7.59375 -14.046875 L 5.1875 -14.046875 Z M 5.1875 -9.609375 "/></g></g></g><g fill="#ff00ff" fill-opacity="1"><g transform="translate(81.049897, 22.388551)"><g><path d="M 5.484375 0 L 5.484375 -14.046875 L 0.234375 -14.046875 L 0.234375 -16.734375 L 13.71875 -16.734375 L 13.71875 -14.046875 L 8.484375 -14.046875 L 8.484375 0 Z M 5.484375 0 "/></g></g></g><g fill="#ff00ff" fill-opacity="1"><g transform="translate(98.289203, 22.388551)"><g/></g></g><g fill="#ff00ff" fill-opacity="1"><g transform="translate(107.385674, 22.388551)"><g><path d="M 5.3125 0 L 0.296875 -16.734375 L 3.421875 -16.734375 L 6.984375 -4.421875 L 10.6875 -15.765625 L 13.03125 -15.765625 L 16.734375 -4.421875 L 20.296875 -16.734375 L 23.421875 -16.734375 L 18.40625 0 L 15.5 0 L 11.859375 -11.015625 L 8.21875 0 Z M 5.3125 0 "/></g></g></g><g fill="#ff00ff" fill-opacity="1"><g transform="translate(134.365614, 22.388551)"><g><path d="M 0.140625 0 L 6.84375 -16.734375 L 9.09375 -16.734375 L 15.765625 0 L 12.515625 0 L 11.21875 -3.640625 L 4.71875 -3.640625 L 3.421875 0 Z M 5.75 -6.203125 L 10.203125 -6.203125 L 7.984375 -12.3125 Z M 5.75 -6.203125 "/></g></g></g><g fill="#ff00ff" fill-opacity="1"><g transform="translate(153.534113, 22.388551)"><g><path d="M 2.15625 0 L 2.15625 -16.734375 L 5.15625 -16.734375 L 5.15625 -2.84375 L 12.3125 -2.84375 L 12.3125 0 Z M 2.15625 0 "/></g></g></g><g fill="#ff00ff" fill-opacity="1"><g transform="translate(169.388676, 22.388551)"><g><path d="M 2.15625 0 L 2.15625 -16.734375 L 5.15625 -16.734375 L 5.15625 -2.84375 L 12.3125 -2.84375 L 12.3125 0 Z M 2.15625 0 "/></g></g></g><g fill="#ff00ff" fill-opacity="1"><g transform="translate(185.243223, 22.388551)"><g><path d="M 2.15625 0 L 2.15625 -16.734375 L 13.28125 -16.734375 L 13.28125 -13.96875 L 5.15625 -13.96875 L 5.15625 -9.75 L 12.734375 -9.75 L 12.734375 -6.984375 L 5.15625 -6.984375 L 5.15625 -2.84375 L 13.28125 -2.84375 L 13.28125 0 Z M 2.15625 0 "/></g></g></g><g fill="#ff00ff" fill-opacity="1"><g transform="translate(203.251842, 22.388551)"><g><path d="M 5.484375 0 L 5.484375 -14.046875 L 0.234375 -14.046875 L 0.234375 -16.734375 L 13.71875 -16.734375 L 13.71875 -14.046875 L 8.484375 -14.046875 L 8.484375 0 Z M 5.484375 0 "/></g></g></g><g fill="#00ffff" fill-opacity="1"><g transform="translate(1.407256, 22.388551)"><g><path d="M 6.9375 0.1875 C 6.195312 0.1875 5.472656 0.0859375 4.765625 -0.109375 C 4.054688 -0.316406 3.40625 -0.625 2.8125 -1.03125 C 2.226562 -1.4375 1.734375 -1.945312 1.328125 -2.5625 C 0.929688 -3.1875 0.664062 -3.90625 0.53125 -4.71875 L 3.515625 -5.484375 C 3.585938 -4.785156 3.785156 -4.210938 4.109375 -3.765625 C 4.441406 -3.328125 4.851562 -3 5.34375 -2.78125 C 5.84375 -2.570312 6.390625 -2.46875 6.984375 -2.46875 C 7.585938 -2.46875 8.09375 -2.5625 8.5 -2.75 C 8.90625 -2.945312 9.210938 -3.207031 9.421875 -3.53125 C 9.640625 -3.851562 9.75 -4.210938 9.75 -4.609375 C 9.75 -5.035156 9.632812 -5.40625 9.40625 -5.71875 C 9.175781 -6.03125 8.867188 -6.296875 8.484375 -6.515625 C 8.097656 -6.742188 7.664062 -6.953125 7.1875 -7.140625 C 6.707031 -7.335938 6.207031 -7.535156 5.6875 -7.734375 C 5.175781 -7.941406 4.679688 -8.171875 4.203125 -8.421875 C 3.722656 -8.679688 3.289062 -8.984375 2.90625 -9.328125 C 2.519531 -9.679688 2.210938 -10.101562 1.984375 -10.59375 C 1.753906 -11.09375 1.640625 -11.679688 1.640625 -12.359375 C 1.640625 -13.097656 1.773438 -13.753906 2.046875 -14.328125 C 2.328125 -14.898438 2.710938 -15.382812 3.203125 -15.78125 C 3.691406 -16.175781 4.25 -16.472656 4.875 -16.671875 C 5.5 -16.878906 6.164062 -16.984375 6.875 -16.984375 C 7.90625 -16.984375 8.863281 -16.75 9.75 -16.28125 C 10.644531 -15.8125 11.378906 -15.066406 11.953125 -14.046875 L 9.453125 -12.515625 C 9.160156 -13.085938 8.78125 -13.523438 8.3125 -13.828125 C 7.84375 -14.140625 7.328125 -14.296875 6.765625 -14.296875 C 6.367188 -14.296875 6.007812 -14.222656 5.6875 -14.078125 C 5.363281 -13.929688 5.109375 -13.722656 4.921875 -13.453125 C 4.742188 -13.179688 4.65625 -12.867188 4.65625 -12.515625 C 4.65625 -12.117188 4.769531 -11.78125 5 -11.5 C 5.226562 -11.21875 5.53125 -10.972656 5.90625 -10.765625 C 6.289062 -10.554688 6.722656 -10.359375 7.203125 -10.171875 C 7.691406 -9.992188 8.191406 -9.800781 8.703125 -9.59375 C 9.210938 -9.394531 9.707031 -9.164062 10.1875 -8.90625 C 10.675781 -8.644531 11.109375 -8.332031 11.484375 -7.96875 C 11.867188 -7.613281 12.175781 -7.179688 12.40625 -6.671875 C 12.632812 -6.171875 12.75 -5.570312 12.75 -4.875 C 12.75 -4.082031 12.597656 -3.375 12.296875 -2.75 C 11.992188 -2.125 11.578125 -1.59375 11.046875 -1.15625 C 10.515625 -0.71875 9.894531 -0.382812 9.1875 -0.15625 C 8.488281 0.0703125 7.738281 0.1875 6.9375 0.1875 Z M 6.9375 0.1875 "/></g></g></g><g fill="#00ffff" fill-opacity="1"><g transform="translate(18.137639, 22.388551)"><g><path d="M 2.15625 0 L 2.15625 -16.734375 L 6.203125 -16.734375 L 10.640625 -4.828125 L 15.078125 -16.734375 L 19.140625 -16.734375 L 19.140625 0 L 16.25 0 L 16.25 -12.515625 L 12.09375 -1.453125 L 9.1875 -1.453125 L 5.046875 -12.515625 L 5.046875 0 Z M 2.15625 0 "/></g></g></g><g fill="#00ffff" fill-opacity="1"><g transform="translate(42.691294, 22.388551)"><g><path d="M 0.140625 0 L 6.84375 -16.734375 L 9.09375 -16.734375 L 15.765625 0 L 12.515625 0 L 11.21875 -3.640625 L 4.71875 -3.640625 L 3.421875 0 Z M 5.75 -6.203125 L 10.203125 -6.203125 L 7.984375 -12.3125 Z M 5.75 -6.203125 "/></g></g></g><g fill="#00ffff" fill-opacity="1"><g transform="translate(61.859793, 22.388551)"><g><path d="M 2.15625 0.03125 L 2.15625 -16.734375 L 7.5625 -16.734375 C 8.34375 -16.734375 9.082031 -16.625 9.78125 -16.40625 C 10.476562 -16.1875 11.09375 -15.863281 11.625 -15.4375 C 12.164062 -15.019531 12.585938 -14.503906 12.890625 -13.890625 C 13.203125 -13.285156 13.359375 -12.59375 13.359375 -11.8125 C 13.359375 -11.101562 13.21875 -10.457031 12.9375 -9.875 C 12.65625 -9.300781 12.265625 -8.804688 11.765625 -8.390625 C 11.273438 -7.984375 10.71875 -7.671875 10.09375 -7.453125 L 14.734375 0.03125 L 11.296875 0.03125 L 7.171875 -7.15625 L 5.15625 -7.15625 L 5.15625 0.03125 Z M 5.1875 -9.609375 L 7.84375 -9.609375 C 8.632812 -9.640625 9.253906 -9.847656 9.703125 -10.234375 C 10.160156 -10.628906 10.390625 -11.140625 10.390625 -11.765625 C 10.390625 -12.453125 10.132812 -13.003906 9.625 -13.421875 C 9.125 -13.835938 8.445312 -14.046875 7.59375 -14.046875 L 5.1875 -14.046875 Z M 5.1875 -9.609375 "/></g></g></g><g fill="#00ffff" fill-opacity="1"><g transform="translate(80.140624, 22.388551)"><g><path d="M 5.484375 0 L 5.484375 -14.046875 L 0.234375 -14.046875 L 0.234375 -16.734375 L 13.71875 -16.734375 L 13.71875 -14.046875 L 8.484375 -14.046875 L 8.484375 0 Z M 5.484375 0 "/></g></g></g><g fill="#00ffff" fill-opacity="1"><g transform="translate(97.379931, 22.388551)"><g/></g></g><g fill="#00ffff" fill-opacity="1"><g transform="translate(106.476401, 22.388551)"><g><path d="M 5.3125 0 L 0.296875 -16.734375 L 3.421875 -16.734375 L 6.984375 -4.421875 L 10.6875 -15.765625 L 13.03125 -15.765625 L 16.734375 -4.421875 L 20.296875 -16.734375 L 23.421875 -16.734375 L 18.40625 0 L 15.5 0 L 11.859375 -11.015625 L 8.21875 0 Z M 5.3125 0 "/></g></g></g><g fill="#00ffff" fill-opacity="1"><g transform="translate(133.456341, 22.388551)"><g><path d="M 0.140625 0 L 6.84375 -16.734375 L 9.09375 -16.734375 L 15.765625 0 L 12.515625 0 L 11.21875 -3.640625 L 4.71875 -3.640625 L 3.421875 0 Z M 5.75 -6.203125 L 10.203125 -6.203125 L 7.984375 -12.3125 Z M 5.75 -6.203125 "/></g></g></g><g fill="#00ffff" fill-opacity="1"><g transform="translate(152.624841, 22.388551)"><g><path d="M 2.15625 0 L 2.15625 -16.734375 L 5.15625 -16.734375 L 5.15625 -2.84375 L 12.3125 -2.84375 L 12.3125 0 Z M 2.15625 0 "/></g></g></g><g fill="#00ffff" fill-opacity="1"><g transform="translate(168.479404, 22.388551)"><g><path d="M 2.15625 0 L 2.15625 -16.734375 L 5.15625 -16.734375 L 5.15625 -2.84375 L 12.3125 -2.84375 L 12.3125 0 Z M 2.15625 0 "/></g></g></g><g fill="#00ffff" fill-opacity="1"><g transform="translate(184.33395, 22.388551)"><g><path d="M 2.15625 0 L 2.15625 -16.734375 L 13.28125 -16.734375 L 13.28125 -13.96875 L 5.15625 -13.96875 L 5.15625 -9.75 L 12.734375 -9.75 L 12.734375 -6.984375 L 5.15625 -6.984375 L 5.15625 -2.84375 L 13.28125 -2.84375 L 13.28125 0 Z M 2.15625 0 "/></g></g></g><g fill="#00ffff" fill-opacity="1"><g transform="translate(202.342569, 22.388551)"><g><path d="M 5.484375 0 L 5.484375 -14.046875 L 0.234375 -14.046875 L 0.234375 -16.734375 L 13.71875 -16.734375 L 13.71875 -14.046875 L 8.484375 -14.046875 L 8.484375 0 Z M 5.484375 0 "/></g></g></g><g fill="#f6eceb" fill-opacity="1"><g transform="translate(1.861892, 22.388551)"><g><path d="M 6.9375 0.1875 C 6.195312 0.1875 5.472656 0.0859375 4.765625 -0.109375 C 4.054688 -0.316406 3.40625 -0.625 2.8125 -1.03125 C 2.226562 -1.4375 1.734375 -1.945312 1.328125 -2.5625 C 0.929688 -3.1875 0.664062 -3.90625 0.53125 -4.71875 L 3.515625 -5.484375 C 3.585938 -4.785156 3.785156 -4.210938 4.109375 -3.765625 C 4.441406 -3.328125 4.851562 -3 5.34375 -2.78125 C 5.84375 -2.570312 6.390625 -2.46875 6.984375 -2.46875 C 7.585938 -2.46875 8.09375 -2.5625 8.5 -2.75 C 8.90625 -2.945312 9.210938 -3.207031 9.421875 -3.53125 C 9.640625 -3.851562 9.75 -4.210938 9.75 -4.609375 C 9.75 -5.035156 9.632812 -5.40625 9.40625 -5.71875 C 9.175781 -6.03125 8.867188 -6.296875 8.484375 -6.515625 C 8.097656 -6.742188 7.664062 -6.953125 7.1875 -7.140625 C 6.707031 -7.335938 6.207031 -7.535156 5.6875 -7.734375 C 5.175781 -7.941406 4.679688 -8.171875 4.203125 -8.421875 C 3.722656 -8.679688 3.289062 -8.984375 2.90625 -9.328125 C 2.519531 -9.679688 2.210938 -10.101562 1.984375 -10.59375 C 1.753906 -11.09375 1.640625 -11.679688 1.640625 -12.359375 C 1.640625 -13.097656 1.773438 -13.753906 2.046875 -14.328125 C 2.328125 -14.898438 2.710938 -15.382812 3.203125 -15.78125 C 3.691406 -16.175781 4.25 -16.472656 4.875 -16.671875 C 5.5 -16.878906 6.164062 -16.984375 6.875 -16.984375 C 7.90625 -16.984375 8.863281 -16.75 9.75 -16.28125 C 10.644531 -15.8125 11.378906 -15.066406 11.953125 -14.046875 L 9.453125 -12.515625 C 9.160156 -13.085938 8.78125 -13.523438 8.3125 -13.828125 C 7.84375 -14.140625 7.328125 -14.296875 6.765625 -14.296875 C 6.367188 -14.296875 6.007812 -14.222656 5.6875 -14.078125 C 5.363281 -13.929688 5.109375 -13.722656 4.921875 -13.453125 C 4.742188 -13.179688 4.65625 -12.867188 4.65625 -12.515625 C 4.65625 -12.117188 4.769531 -11.78125 5 -11.5 C 5.226562 -11.21875 5.53125 -10.972656 5.90625 -10.765625 C 6.289062 -10.554688 6.722656 -10.359375 7.203125 -10.171875 C 7.691406 -9.992188 8.191406 -9.800781 8.703125 -9.59375 C 9.210938 -9.394531 9.707031 -9.164062 10.1875 -8.90625 C 10.675781 -8.644531 11.109375 -8.332031 11.484375 -7.96875 C 11.867188 -7.613281 12.175781 -7.179688 12.40625 -6.671875 C 12.632812 -6.171875 12.75 -5.570312 12.75 -4.875 C 12.75 -4.082031 12.597656 -3.375 12.296875 -2.75 C 11.992188 -2.125 11.578125 -1.59375 11.046875 -1.15625 C 10.515625 -0.71875 9.894531 -0.382812 9.1875 -0.15625 C 8.488281 0.0703125 7.738281 0.1875 6.9375 0.1875 Z M 6.9375 0.1875 "/></g></g></g><g fill="#f6eceb" fill-opacity="1"><g transform="translate(18.592275, 22.388551)"><g><path d="M 2.15625 0 L 2.15625 -16.734375 L 6.203125 -16.734375 L 10.640625 -4.828125 L 15.078125 -16.734375 L 19.140625 -16.734375 L 19.140625 0 L 16.25 0 L 16.25 -12.515625 L 12.09375 -1.453125 L 9.1875 -1.453125 L 5.046875 -12.515625 L 5.046875 0 Z M 2.15625 0 "/></g></g></g><g fill="#f6eceb" fill-opacity="1"><g transform="translate(43.14593, 22.388551)"><g><path d="M 0.140625 0 L 6.84375 -16.734375 L 9.09375 -16.734375 L 15.765625 0 L 12.515625 0 L 11.21875 -3.640625 L 4.71875 -3.640625 L 3.421875 0 Z M 5.75 -6.203125 L 10.203125 -6.203125 L 7.984375 -12.3125 Z M 5.75 -6.203125 "/></g></g></g><g fill="#f6eceb" fill-opacity="1"><g transform="translate(62.314429, 22.388551)"><g><path d="M 2.15625 0.03125 L 2.15625 -16.734375 L 7.5625 -16.734375 C 8.34375 -16.734375 9.082031 -16.625 9.78125 -16.40625 C 10.476562 -16.1875 11.09375 -15.863281 11.625 -15.4375 C 12.164062 -15.019531 12.585938 -14.503906 12.890625 -13.890625 C 13.203125 -13.285156 13.359375 -12.59375 13.359375 -11.8125 C 13.359375 -11.101562 13.21875 -10.457031 12.9375 -9.875 C 12.65625 -9.300781 12.265625 -8.804688 11.765625 -8.390625 C 11.273438 -7.984375 10.71875 -7.671875 10.09375 -7.453125 L 14.734375 0.03125 L 11.296875 0.03125 L 7.171875 -7.15625 L 5.15625 -7.15625 L 5.15625 0.03125 Z M 5.1875 -9.609375 L 7.84375 -9.609375 C 8.632812 -9.640625 9.253906 -9.847656 9.703125 -10.234375 C 10.160156 -10.628906 10.390625 -11.140625 10.390625 -11.765625 C 10.390625 -12.453125 10.132812 -13.003906 9.625 -13.421875 C 9.125 -13.835938 8.445312 -14.046875 7.59375 -14.046875 L 5.1875 -14.046875 Z M 5.1875 -9.609375 "/></g></g></g><g fill="#f6eceb" fill-opacity="1"><g transform="translate(80.595261, 22.388551)"><g><path d="M 5.484375 0 L 5.484375 -14.046875 L 0.234375 -14.046875 L 0.234375 -16.734375 L 13.71875 -16.734375 L 13.71875 -14.046875 L 8.484375 -14.046875 L 8.484375 0 Z M 5.484375 0 "/></g></g></g><g fill="#f6eceb" fill-opacity="1"><g transform="translate(97.834567, 22.388551)"><g/></g></g><g fill="#f6eceb" fill-opacity="1"><g transform="translate(106.931038, 22.388551)"><g><path d="M 5.3125 0 L 0.296875 -16.734375 L 3.421875 -16.734375 L 6.984375 -4.421875 L 10.6875 -15.765625 L 13.03125 -15.765625 L 16.734375 -4.421875 L 20.296875 -16.734375 L 23.421875 -16.734375 L 18.40625 0 L 15.5 0 L 11.859375 -11.015625 L 8.21875 0 Z M 5.3125 0 "/></g></g></g><g fill="#f6eceb" fill-opacity="1"><g transform="translate(133.910978, 22.388551)"><g><path d="M 0.140625 0 L 6.84375 -16.734375 L 9.09375 -16.734375 L 15.765625 0 L 12.515625 0 L 11.21875 -3.640625 L 4.71875 -3.640625 L 3.421875 0 Z M 5.75 -6.203125 L 10.203125 -6.203125 L 7.984375 -12.3125 Z M 5.75 -6.203125 "/></g></g></g><g fill="#f6eceb" fill-opacity="1"><g transform="translate(153.079477, 22.388551)"><g><path d="M 2.15625 0 L 2.15625 -16.734375 L 5.15625 -16.734375 L 5.15625 -2.84375 L 12.3125 -2.84375 L 12.3125 0 Z M 2.15625 0 "/></g></g></g><g fill="#f6eceb" fill-opacity="1"><g transform="translate(168.93404, 22.388551)"><g><path d="M 2.15625 0 L 2.15625 -16.734375 L 5.15625 -16.734375 L 5.15625 -2.84375 L 12.3125 -2.84375 L 12.3125 0 Z M 2.15625 0 "/></g></g></g><g fill="#f6eceb" fill-opacity="1"><g transform="translate(184.788587, 22.388551)"><g><path d="M 2.15625 0 L 2.15625 -16.734375 L 13.28125 -16.734375 L 13.28125 -13.96875 L 5.15625 -13.96875 L 5.15625 -9.75 L 12.734375 -9.75 L 12.734375 -6.984375 L 5.15625 -6.984375 L 5.15625 -2.84375 L 13.28125 -2.84375 L 13.28125 0 Z M 2.15625 0 "/></g></g></g><g fill="#f6eceb" fill-opacity="1"><g transform="translate(202.797206, 22.388551)"><g><path d="M 5.484375 0 L 5.484375 -14.046875 L 0.234375 -14.046875 L 0.234375 -16.734375 L 13.71875 -16.734375 L 13.71875 -14.046875 L 8.484375 -14.046875 L 8.484375 0 Z M 5.484375 0 "/></g></g></g></g></g></svg>