<svg xmlns="http://www.w3.org/2000/svg" xmlns:xlink="http://www.w3.org/1999/xlink" width="500" zoomAndPan="magnify" viewBox="0 0 375 374.999991" height="500" preserveAspectRatio="xMidYMid meet" version="1.0"><defs><clipPath id="739438ac9c"><path d="M 138 150.710938 L 236.953125 150.710938 L 236.953125 224.210938 L 138 224.210938 Z M 138 150.710938 " clip-rule="nonzero"/></clipPath><clipPath id="97120c25fc"><path d="M 200 175 L 236.953125 175 L 236.953125 200 L 200 200 Z M 200 175 " clip-rule="nonzero"/></clipPath></defs><rect x="-37.5" width="450" fill="#ffffff" y="-37.499999" height="449.999989" fill-opacity="1"/><rect x="-37.5" width="450" fill="#ffffff" y="-37.499999" height="449.999989" fill-opacity="1"/><g clip-path="url(#739438ac9c)"><path fill="#111827" d="M 146.339844 153.359375 C 143.324219 153.359375 140.875 155.8125 140.875 158.828125 L 140.875 216.023438 C 140.875 219.042969 143.324219 221.503906 146.339844 221.503906 L 228.648438 221.503906 C 231.664062 221.503906 234.117188 219.042969 234.117188 216.023438 L 234.117188 158.828125 C 234.117188 155.8125 231.664062 153.359375 228.648438 153.359375 Z M 228.648438 224.183594 L 146.339844 224.183594 C 141.847656 224.183594 138.195312 220.523438 138.195312 216.023438 L 138.195312 158.828125 C 138.195312 154.332031 141.847656 150.675781 146.339844 150.675781 L 228.648438 150.675781 C 233.140625 150.675781 236.796875 154.332031 236.796875 158.828125 L 236.796875 216.023438 C 236.796875 220.523438 233.140625 224.183594 228.648438 224.183594 " fill-opacity="1" fill-rule="nonzero"/></g><g clip-path="url(#97120c25fc)"><path fill="#111827" d="M 212.5 178.21875 C 210.039062 178.21875 207.734375 179.175781 205.996094 180.90625 C 204.257812 182.652344 203.292969 184.964844 203.292969 187.425781 C 203.292969 192.507812 207.421875 196.644531 212.5 196.644531 L 234.117188 196.644531 L 234.117188 178.21875 Z M 236.796875 199.324219 L 212.5 199.324219 C 205.949219 199.324219 200.613281 193.984375 200.613281 187.425781 C 200.613281 184.246094 201.855469 181.265625 204.105469 179.011719 C 206.34375 176.773438 209.324219 175.535156 212.5 175.535156 L 236.796875 175.535156 L 236.796875 199.324219 " fill-opacity="1" fill-rule="nonzero"/></g><path fill="#111827" d="M 212.691406 183.703125 C 210.636719 183.703125 208.960938 185.378906 208.960938 187.429688 C 208.960938 189.480469 210.636719 191.15625 212.691406 191.15625 C 214.746094 191.15625 216.417969 189.480469 216.417969 187.429688 C 216.417969 185.378906 214.746094 183.703125 212.691406 183.703125 Z M 212.691406 193.835938 C 209.15625 193.835938 206.28125 190.964844 206.28125 187.429688 C 206.28125 183.898438 209.15625 181.023438 212.691406 181.023438 C 216.222656 181.023438 219.097656 183.898438 219.097656 187.429688 C 219.097656 190.964844 216.222656 193.835938 212.691406 193.835938 " fill-opacity="1" fill-rule="nonzero"/><path fill="#111827" d="M 140.484375 194.84375 L 138.585938 192.949219 L 180.464844 151.070312 L 182.359375 152.964844 L 140.484375 194.84375 " fill-opacity="1" fill-rule="nonzero"/><path fill="#111827" d="M 140.484375 178.925781 L 138.585938 177.027344 L 164.558594 151.070312 L 166.453125 152.964844 L 140.484375 178.925781 " fill-opacity="1" fill-rule="nonzero"/></svg>