<svg xmlns="http://www.w3.org/2000/svg" xmlns:xlink="http://www.w3.org/1999/xlink" width="500" zoomAndPan="magnify" viewBox="0 0 375 374.999991" height="500" preserveAspectRatio="xMidYMid meet" version="1.0"><defs><g/></defs><g fill="#ff00ff" fill-opacity="1"><g transform="translate(125.708535, 197.009987)"><g><path d="M 9.4375 0.265625 C 8.425781 0.265625 7.441406 0.125 6.484375 -0.15625 C 5.523438 -0.4375 4.644531 -0.851562 3.84375 -1.40625 C 3.039062 -1.957031 2.363281 -2.648438 1.8125 -3.484375 C 1.269531 -4.328125 0.90625 -5.304688 0.71875 -6.421875 L 4.78125 -7.453125 C 4.882812 -6.515625 5.15625 -5.742188 5.59375 -5.140625 C 6.039062 -4.535156 6.601562 -4.085938 7.28125 -3.796875 C 7.957031 -3.515625 8.695312 -3.375 9.5 -3.375 C 10.320312 -3.375 11.007812 -3.5 11.5625 -3.75 C 12.113281 -4.007812 12.535156 -4.359375 12.828125 -4.796875 C 13.117188 -5.242188 13.265625 -5.734375 13.265625 -6.265625 C 13.265625 -6.859375 13.109375 -7.363281 12.796875 -7.78125 C 12.484375 -8.195312 12.066406 -8.554688 11.546875 -8.859375 C 11.023438 -9.171875 10.4375 -9.457031 9.78125 -9.71875 C 9.125 -9.988281 8.445312 -10.257812 7.75 -10.53125 C 7.050781 -10.800781 6.375 -11.109375 5.71875 -11.453125 C 5.0625 -11.804688 4.472656 -12.222656 3.953125 -12.703125 C 3.429688 -13.179688 3.015625 -13.753906 2.703125 -14.421875 C 2.390625 -15.097656 2.234375 -15.898438 2.234375 -16.828125 C 2.234375 -17.835938 2.421875 -18.726562 2.796875 -19.5 C 3.179688 -20.28125 3.703125 -20.9375 4.359375 -21.46875 C 5.015625 -22.007812 5.769531 -22.414062 6.625 -22.6875 C 7.476562 -22.96875 8.382812 -23.109375 9.34375 -23.109375 C 10.75 -23.109375 12.054688 -22.785156 13.265625 -22.140625 C 14.484375 -21.503906 15.488281 -20.492188 16.28125 -19.109375 L 12.875 -17.03125 C 12.476562 -17.800781 11.957031 -18.398438 11.3125 -18.828125 C 10.664062 -19.253906 9.960938 -19.46875 9.203125 -19.46875 C 8.660156 -19.46875 8.171875 -19.363281 7.734375 -19.15625 C 7.304688 -18.957031 6.960938 -18.671875 6.703125 -18.296875 C 6.453125 -17.929688 6.328125 -17.507812 6.328125 -17.03125 C 6.328125 -16.488281 6.484375 -16.023438 6.796875 -15.640625 C 7.109375 -15.265625 7.523438 -14.9375 8.046875 -14.65625 C 8.566406 -14.375 9.15625 -14.101562 9.8125 -13.84375 C 10.46875 -13.59375 11.144531 -13.332031 11.84375 -13.0625 C 12.539062 -12.789062 13.21875 -12.472656 13.875 -12.109375 C 14.53125 -11.753906 15.117188 -11.332031 15.640625 -10.84375 C 16.160156 -10.363281 16.578125 -9.78125 16.890625 -9.09375 C 17.203125 -8.40625 17.359375 -7.585938 17.359375 -6.640625 C 17.359375 -5.566406 17.148438 -4.601562 16.734375 -3.75 C 16.316406 -2.894531 15.742188 -2.164062 15.015625 -1.5625 C 14.296875 -0.96875 13.457031 -0.515625 12.5 -0.203125 C 11.539062 0.109375 10.519531 0.265625 9.4375 0.265625 Z M 9.4375 0.265625 "/></g></g></g><g fill="#ff00ff" fill-opacity="1"><g transform="translate(157.75064, 197.009987)"><g><path d="M 7.234375 0 L 0.40625 -22.765625 L 4.65625 -22.765625 L 9.5 -6.015625 L 14.546875 -21.453125 L 17.71875 -21.453125 L 22.765625 -6.015625 L 27.625 -22.765625 L 31.875 -22.765625 L 25.046875 0 L 21.09375 0 L 16.125 -14.984375 L 11.1875 0 Z M 7.234375 0 "/></g></g></g><g fill="#ff00ff" fill-opacity="1"><g transform="translate(203.74189, 197.009987)"><g><path d="M 2.9375 0 L 2.9375 -22.765625 L 7.03125 -22.765625 L 7.03125 -3.875 L 16.765625 -3.875 L 16.765625 0 Z M 2.9375 0 "/></g></g></g><g fill="#ff00ff" fill-opacity="1"><g transform="translate(231.950064, 197.009987)"><g><path d="M 7.453125 0 L 7.453125 -19.109375 L 0.328125 -19.109375 L 0.328125 -22.765625 L 18.671875 -22.765625 L 18.671875 -19.109375 L 11.546875 -19.109375 L 11.546875 0 Z M 7.453125 0 "/></g></g></g><g fill="#00ffff" fill-opacity="1"><g transform="translate(124.017316, 197.009987)"><g><path d="M 9.4375 0.265625 C 8.425781 0.265625 7.441406 0.125 6.484375 -0.15625 C 5.523438 -0.4375 4.644531 -0.851562 3.84375 -1.40625 C 3.039062 -1.957031 2.363281 -2.648438 1.8125 -3.484375 C 1.269531 -4.328125 0.90625 -5.304688 0.71875 -6.421875 L 4.78125 -7.453125 C 4.882812 -6.515625 5.15625 -5.742188 5.59375 -5.140625 C 6.039062 -4.535156 6.601562 -4.085938 7.28125 -3.796875 C 7.957031 -3.515625 8.695312 -3.375 9.5 -3.375 C 10.320312 -3.375 11.007812 -3.5 11.5625 -3.75 C 12.113281 -4.007812 12.535156 -4.359375 12.828125 -4.796875 C 13.117188 -5.242188 13.265625 -5.734375 13.265625 -6.265625 C 13.265625 -6.859375 13.109375 -7.363281 12.796875 -7.78125 C 12.484375 -8.195312 12.066406 -8.554688 11.546875 -8.859375 C 11.023438 -9.171875 10.4375 -9.457031 9.78125 -9.71875 C 9.125 -9.988281 8.445312 -10.257812 7.75 -10.53125 C 7.050781 -10.800781 6.375 -11.109375 5.71875 -11.453125 C 5.0625 -11.804688 4.472656 -12.222656 3.953125 -12.703125 C 3.429688 -13.179688 3.015625 -13.753906 2.703125 -14.421875 C 2.390625 -15.097656 2.234375 -15.898438 2.234375 -16.828125 C 2.234375 -17.835938 2.421875 -18.726562 2.796875 -19.5 C 3.179688 -20.28125 3.703125 -20.9375 4.359375 -21.46875 C 5.015625 -22.007812 5.769531 -22.414062 6.625 -22.6875 C 7.476562 -22.96875 8.382812 -23.109375 9.34375 -23.109375 C 10.75 -23.109375 12.054688 -22.785156 13.265625 -22.140625 C 14.484375 -21.503906 15.488281 -20.492188 16.28125 -19.109375 L 12.875 -17.03125 C 12.476562 -17.800781 11.957031 -18.398438 11.3125 -18.828125 C 10.664062 -19.253906 9.960938 -19.46875 9.203125 -19.46875 C 8.660156 -19.46875 8.171875 -19.363281 7.734375 -19.15625 C 7.304688 -18.957031 6.960938 -18.671875 6.703125 -18.296875 C 6.453125 -17.929688 6.328125 -17.507812 6.328125 -17.03125 C 6.328125 -16.488281 6.484375 -16.023438 6.796875 -15.640625 C 7.109375 -15.265625 7.523438 -14.9375 8.046875 -14.65625 C 8.566406 -14.375 9.15625 -14.101562 9.8125 -13.84375 C 10.46875 -13.59375 11.144531 -13.332031 11.84375 -13.0625 C 12.539062 -12.789062 13.21875 -12.472656 13.875 -12.109375 C 14.53125 -11.753906 15.117188 -11.332031 15.640625 -10.84375 C 16.160156 -10.363281 16.578125 -9.78125 16.890625 -9.09375 C 17.203125 -8.40625 17.359375 -7.585938 17.359375 -6.640625 C 17.359375 -5.566406 17.148438 -4.601562 16.734375 -3.75 C 16.316406 -2.894531 15.742188 -2.164062 15.015625 -1.5625 C 14.296875 -0.96875 13.457031 -0.515625 12.5 -0.203125 C 11.539062 0.109375 10.519531 0.265625 9.4375 0.265625 Z M 9.4375 0.265625 "/></g></g></g><g fill="#00ffff" fill-opacity="1"><g transform="translate(156.05942, 197.009987)"><g><path d="M 7.234375 0 L 0.40625 -22.765625 L 4.65625 -22.765625 L 9.5 -6.015625 L 14.546875 -21.453125 L 17.71875 -21.453125 L 22.765625 -6.015625 L 27.625 -22.765625 L 31.875 -22.765625 L 25.046875 0 L 21.09375 0 L 16.125 -14.984375 L 11.1875 0 Z M 7.234375 0 "/></g></g></g><g fill="#00ffff" fill-opacity="1"><g transform="translate(202.05067, 197.009987)"><g><path d="M 2.9375 0 L 2.9375 -22.765625 L 7.03125 -22.765625 L 7.03125 -3.875 L 16.765625 -3.875 L 16.765625 0 Z M 2.9375 0 "/></g></g></g><g fill="#00ffff" fill-opacity="1"><g transform="translate(230.258844, 197.009987)"><g><path d="M 7.453125 0 L 7.453125 -19.109375 L 0.328125 -19.109375 L 0.328125 -22.765625 L 18.671875 -22.765625 L 18.671875 -19.109375 L 11.546875 -19.109375 L 11.546875 0 Z M 7.453125 0 "/></g></g></g><g fill="#f6eceb" fill-opacity="1"><g transform="translate(124.862927, 197.009987)"><g><path d="M 9.4375 0.265625 C 8.425781 0.265625 7.441406 0.125 6.484375 -0.15625 C 5.523438 -0.4375 4.644531 -0.851562 3.84375 -1.40625 C 3.039062 -1.957031 2.363281 -2.648438 1.8125 -3.484375 C 1.269531 -4.328125 0.90625 -5.304688 0.71875 -6.421875 L 4.78125 -7.453125 C 4.882812 -6.515625 5.15625 -5.742188 5.59375 -5.140625 C 6.039062 -4.535156 6.601562 -4.085938 7.28125 -3.796875 C 7.957031 -3.515625 8.695312 -3.375 9.5 -3.375 C 10.320312 -3.375 11.007812 -3.5 11.5625 -3.75 C 12.113281 -4.007812 12.535156 -4.359375 12.828125 -4.796875 C 13.117188 -5.242188 13.265625 -5.734375 13.265625 -6.265625 C 13.265625 -6.859375 13.109375 -7.363281 12.796875 -7.78125 C 12.484375 -8.195312 12.066406 -8.554688 11.546875 -8.859375 C 11.023438 -9.171875 10.4375 -9.457031 9.78125 -9.71875 C 9.125 -9.988281 8.445312 -10.257812 7.75 -10.53125 C 7.050781 -10.800781 6.375 -11.109375 5.71875 -11.453125 C 5.0625 -11.804688 4.472656 -12.222656 3.953125 -12.703125 C 3.429688 -13.179688 3.015625 -13.753906 2.703125 -14.421875 C 2.390625 -15.097656 2.234375 -15.898438 2.234375 -16.828125 C 2.234375 -17.835938 2.421875 -18.726562 2.796875 -19.5 C 3.179688 -20.28125 3.703125 -20.9375 4.359375 -21.46875 C 5.015625 -22.007812 5.769531 -22.414062 6.625 -22.6875 C 7.476562 -22.96875 8.382812 -23.109375 9.34375 -23.109375 C 10.75 -23.109375 12.054688 -22.785156 13.265625 -22.140625 C 14.484375 -21.503906 15.488281 -20.492188 16.28125 -19.109375 L 12.875 -17.03125 C 12.476562 -17.800781 11.957031 -18.398438 11.3125 -18.828125 C 10.664062 -19.253906 9.960938 -19.46875 9.203125 -19.46875 C 8.660156 -19.46875 8.171875 -19.363281 7.734375 -19.15625 C 7.304688 -18.957031 6.960938 -18.671875 6.703125 -18.296875 C 6.453125 -17.929688 6.328125 -17.507812 6.328125 -17.03125 C 6.328125 -16.488281 6.484375 -16.023438 6.796875 -15.640625 C 7.109375 -15.265625 7.523438 -14.9375 8.046875 -14.65625 C 8.566406 -14.375 9.15625 -14.101562 9.8125 -13.84375 C 10.46875 -13.59375 11.144531 -13.332031 11.84375 -13.0625 C 12.539062 -12.789062 13.21875 -12.472656 13.875 -12.109375 C 14.53125 -11.753906 15.117188 -11.332031 15.640625 -10.84375 C 16.160156 -10.363281 16.578125 -9.78125 16.890625 -9.09375 C 17.203125 -8.40625 17.359375 -7.585938 17.359375 -6.640625 C 17.359375 -5.566406 17.148438 -4.601562 16.734375 -3.75 C 16.316406 -2.894531 15.742188 -2.164062 15.015625 -1.5625 C 14.296875 -0.96875 13.457031 -0.515625 12.5 -0.203125 C 11.539062 0.109375 10.519531 0.265625 9.4375 0.265625 Z M 9.4375 0.265625 "/></g></g></g><g fill="#f6eceb" fill-opacity="1"><g transform="translate(156.905031, 197.009987)"><g><path d="M 7.234375 0 L 0.40625 -22.765625 L 4.65625 -22.765625 L 9.5 -6.015625 L 14.546875 -21.453125 L 17.71875 -21.453125 L 22.765625 -6.015625 L 27.625 -22.765625 L 31.875 -22.765625 L 25.046875 0 L 21.09375 0 L 16.125 -14.984375 L 11.1875 0 Z M 7.234375 0 "/></g></g></g><g fill="#f6eceb" fill-opacity="1"><g transform="translate(202.896282, 197.009987)"><g><path d="M 2.9375 0 L 2.9375 -22.765625 L 7.03125 -22.765625 L 7.03125 -3.875 L 16.765625 -3.875 L 16.765625 0 Z M 2.9375 0 "/></g></g></g><g fill="#f6eceb" fill-opacity="1"><g transform="translate(231.104455, 197.009987)"><g><path d="M 7.453125 0 L 7.453125 -19.109375 L 0.328125 -19.109375 L 0.328125 -22.765625 L 18.671875 -22.765625 L 18.671875 -19.109375 L 11.546875 -19.109375 L 11.546875 0 Z M 7.453125 0 "/></g></g></g></svg>