<svg xmlns="http://www.w3.org/2000/svg" xmlns:xlink="http://www.w3.org/1999/xlink" width="500" zoomAndPan="magnify" viewBox="0 0 375 374.999991" height="500" preserveAspectRatio="xMidYMid meet" version="1.0"><defs><g/><clipPath id="7f291020d0"><rect x="0" width="326" y="0" height="93"/></clipPath></defs><rect x="-37.5" width="450" fill="#ffffff" y="-37.499999" height="449.999989" fill-opacity="1"/><rect x="-37.5" width="450" fill="#ffffff" y="-37.499999" height="449.999989" fill-opacity="1"/><g transform="matrix(1, 0, 0, 1, 39, 141)"><g clip-path="url(#7f291020d0)"><g fill="#ff00ff" fill-opacity="1"><g transform="translate(6.186842, 68.091737)"><g><path d="M 21.734375 0.59375 C 19.410156 0.59375 17.140625 0.273438 14.921875 -0.359375 C 12.710938 -1.003906 10.6875 -1.960938 8.84375 -3.234375 C 7 -4.515625 5.445312 -6.117188 4.1875 -8.046875 C 2.925781 -9.972656 2.085938 -12.222656 1.671875 -14.796875 L 11.015625 -17.171875 C 11.242188 -14.992188 11.867188 -13.210938 12.890625 -11.828125 C 13.921875 -10.441406 15.210938 -9.414062 16.765625 -8.75 C 18.328125 -8.082031 20.035156 -7.75 21.890625 -7.75 C 23.765625 -7.75 25.335938 -8.046875 26.609375 -8.640625 C 27.890625 -9.234375 28.863281 -10.035156 29.53125 -11.046875 C 30.195312 -12.066406 30.53125 -13.195312 30.53125 -14.4375 C 30.53125 -15.789062 30.171875 -16.945312 29.453125 -17.90625 C 28.742188 -18.875 27.785156 -19.710938 26.578125 -20.421875 C 25.378906 -21.128906 24.023438 -21.785156 22.515625 -22.390625 C 21.003906 -22.992188 19.445312 -23.609375 17.84375 -24.234375 C 16.238281 -24.867188 14.679688 -25.585938 13.171875 -26.390625 C 11.660156 -27.203125 10.304688 -28.15625 9.109375 -29.25 C 7.910156 -30.351562 6.953125 -31.675781 6.234375 -33.21875 C 5.515625 -34.769531 5.15625 -36.609375 5.15625 -38.734375 C 5.15625 -41.054688 5.585938 -43.113281 6.453125 -44.90625 C 7.316406 -46.695312 8.507812 -48.210938 10.03125 -49.453125 C 11.550781 -50.691406 13.296875 -51.625 15.265625 -52.25 C 17.234375 -52.882812 19.316406 -53.203125 21.515625 -53.203125 C 24.753906 -53.203125 27.769531 -52.460938 30.5625 -50.984375 C 33.363281 -49.515625 35.664062 -47.1875 37.46875 -44 L 29.640625 -39.21875 C 28.722656 -41 27.519531 -42.375 26.03125 -43.34375 C 24.550781 -44.320312 22.9375 -44.8125 21.1875 -44.8125 C 19.945312 -44.8125 18.828125 -44.578125 17.828125 -44.109375 C 16.828125 -43.640625 16.035156 -42.984375 15.453125 -42.140625 C 14.867188 -41.304688 14.578125 -40.332031 14.578125 -39.21875 C 14.578125 -37.976562 14.9375 -36.921875 15.65625 -36.046875 C 16.375 -35.171875 17.332031 -34.40625 18.53125 -33.75 C 19.726562 -33.09375 21.082031 -32.472656 22.59375 -31.890625 C 24.101562 -31.304688 25.660156 -30.695312 27.265625 -30.0625 C 28.878906 -29.4375 30.4375 -28.710938 31.9375 -27.890625 C 33.445312 -27.078125 34.800781 -26.109375 36 -24.984375 C 37.207031 -23.859375 38.164062 -22.503906 38.875 -20.921875 C 39.59375 -19.335938 39.953125 -17.457031 39.953125 -15.28125 C 39.953125 -12.8125 39.476562 -10.59375 38.53125 -8.625 C 37.582031 -6.65625 36.269531 -4.984375 34.59375 -3.609375 C 32.925781 -2.242188 30.988281 -1.203125 28.78125 -0.484375 C 26.582031 0.234375 24.234375 0.59375 21.734375 0.59375 Z M 21.734375 0.59375 "/></g></g></g><g fill="#ff00ff" fill-opacity="1"><g transform="translate(79.983668, 68.091737)"><g><path d="M 16.65625 0 L 0.921875 -52.421875 L 10.71875 -52.421875 L 21.890625 -13.84375 L 33.5 -49.375 L 40.8125 -49.375 L 52.421875 -13.84375 L 63.59375 -52.421875 L 73.390625 -52.421875 L 57.65625 0 L 48.5625 0 L 37.140625 -34.5 L 25.75 0 Z M 16.65625 0 "/></g></g></g><g fill="#ff00ff" fill-opacity="1"><g transform="translate(185.907055, 68.091737)"><g><path d="M 6.75 0 L 6.75 -52.421875 L 16.171875 -52.421875 L 16.171875 -8.90625 L 38.578125 -8.90625 L 38.578125 0 Z M 6.75 0 "/></g></g></g><g fill="#ff00ff" fill-opacity="1"><g transform="translate(250.873876, 68.091737)"><g><path d="M 17.171875 0 L 17.171875 -44 L 0.734375 -44 L 0.734375 -52.421875 L 43 -52.421875 L 43 -44 L 26.609375 -44 L 26.609375 0 Z M 17.171875 0 "/></g></g></g><g fill="#00ffff" fill-opacity="1"><g transform="translate(2.291743, 68.091737)"><g><path d="M 21.734375 0.59375 C 19.410156 0.59375 17.140625 0.273438 14.921875 -0.359375 C 12.710938 -1.003906 10.6875 -1.960938 8.84375 -3.234375 C 7 -4.515625 5.445312 -6.117188 4.1875 -8.046875 C 2.925781 -9.972656 2.085938 -12.222656 1.671875 -14.796875 L 11.015625 -17.171875 C 11.242188 -14.992188 11.867188 -13.210938 12.890625 -11.828125 C 13.921875 -10.441406 15.210938 -9.414062 16.765625 -8.75 C 18.328125 -8.082031 20.035156 -7.75 21.890625 -7.75 C 23.765625 -7.75 25.335938 -8.046875 26.609375 -8.640625 C 27.890625 -9.234375 28.863281 -10.035156 29.53125 -11.046875 C 30.195312 -12.066406 30.53125 -13.195312 30.53125 -14.4375 C 30.53125 -15.789062 30.171875 -16.945312 29.453125 -17.90625 C 28.742188 -18.875 27.785156 -19.710938 26.578125 -20.421875 C 25.378906 -21.128906 24.023438 -21.785156 22.515625 -22.390625 C 21.003906 -22.992188 19.445312 -23.609375 17.84375 -24.234375 C 16.238281 -24.867188 14.679688 -25.585938 13.171875 -26.390625 C 11.660156 -27.203125 10.304688 -28.15625 9.109375 -29.25 C 7.910156 -30.351562 6.953125 -31.675781 6.234375 -33.21875 C 5.515625 -34.769531 5.15625 -36.609375 5.15625 -38.734375 C 5.15625 -41.054688 5.585938 -43.113281 6.453125 -44.90625 C 7.316406 -46.695312 8.507812 -48.210938 10.03125 -49.453125 C 11.550781 -50.691406 13.296875 -51.625 15.265625 -52.25 C 17.234375 -52.882812 19.316406 -53.203125 21.515625 -53.203125 C 24.753906 -53.203125 27.769531 -52.460938 30.5625 -50.984375 C 33.363281 -49.515625 35.664062 -47.1875 37.46875 -44 L 29.640625 -39.21875 C 28.722656 -41 27.519531 -42.375 26.03125 -43.34375 C 24.550781 -44.320312 22.9375 -44.8125 21.1875 -44.8125 C 19.945312 -44.8125 18.828125 -44.578125 17.828125 -44.109375 C 16.828125 -43.640625 16.035156 -42.984375 15.453125 -42.140625 C 14.867188 -41.304688 14.578125 -40.332031 14.578125 -39.21875 C 14.578125 -37.976562 14.9375 -36.921875 15.65625 -36.046875 C 16.375 -35.171875 17.332031 -34.40625 18.53125 -33.75 C 19.726562 -33.09375 21.082031 -32.472656 22.59375 -31.890625 C 24.101562 -31.304688 25.660156 -30.695312 27.265625 -30.0625 C 28.878906 -29.4375 30.4375 -28.710938 31.9375 -27.890625 C 33.445312 -27.078125 34.800781 -26.109375 36 -24.984375 C 37.207031 -23.859375 38.164062 -22.503906 38.875 -20.921875 C 39.59375 -19.335938 39.953125 -17.457031 39.953125 -15.28125 C 39.953125 -12.8125 39.476562 -10.59375 38.53125 -8.625 C 37.582031 -6.65625 36.269531 -4.984375 34.59375 -3.609375 C 32.925781 -2.242188 30.988281 -1.203125 28.78125 -0.484375 C 26.582031 0.234375 24.234375 0.59375 21.734375 0.59375 Z M 21.734375 0.59375 "/></g></g></g><g fill="#00ffff" fill-opacity="1"><g transform="translate(76.088568, 68.091737)"><g><path d="M 16.65625 0 L 0.921875 -52.421875 L 10.71875 -52.421875 L 21.890625 -13.84375 L 33.5 -49.375 L 40.8125 -49.375 L 52.421875 -13.84375 L 63.59375 -52.421875 L 73.390625 -52.421875 L 57.65625 0 L 48.5625 0 L 37.140625 -34.5 L 25.75 0 Z M 16.65625 0 "/></g></g></g><g fill="#00ffff" fill-opacity="1"><g transform="translate(182.011955, 68.091737)"><g><path d="M 6.75 0 L 6.75 -52.421875 L 16.171875 -52.421875 L 16.171875 -8.90625 L 38.578125 -8.90625 L 38.578125 0 Z M 6.75 0 "/></g></g></g><g fill="#00ffff" fill-opacity="1"><g transform="translate(246.978776, 68.091737)"><g><path d="M 17.171875 0 L 17.171875 -44 L 0.734375 -44 L 0.734375 -52.421875 L 43 -52.421875 L 43 -44 L 26.609375 -44 L 26.609375 0 Z M 17.171875 0 "/></g></g></g><g fill="#0f4c81" fill-opacity="1"><g transform="translate(4.239292, 68.091737)"><g><path d="M 21.734375 0.59375 C 19.410156 0.59375 17.140625 0.273438 14.921875 -0.359375 C 12.710938 -1.003906 10.6875 -1.960938 8.84375 -3.234375 C 7 -4.515625 5.445312 -6.117188 4.1875 -8.046875 C 2.925781 -9.972656 2.085938 -12.222656 1.671875 -14.796875 L 11.015625 -17.171875 C 11.242188 -14.992188 11.867188 -13.210938 12.890625 -11.828125 C 13.921875 -10.441406 15.210938 -9.414062 16.765625 -8.75 C 18.328125 -8.082031 20.035156 -7.75 21.890625 -7.75 C 23.765625 -7.75 25.335938 -8.046875 26.609375 -8.640625 C 27.890625 -9.234375 28.863281 -10.035156 29.53125 -11.046875 C 30.195312 -12.066406 30.53125 -13.195312 30.53125 -14.4375 C 30.53125 -15.789062 30.171875 -16.945312 29.453125 -17.90625 C 28.742188 -18.875 27.785156 -19.710938 26.578125 -20.421875 C 25.378906 -21.128906 24.023438 -21.785156 22.515625 -22.390625 C 21.003906 -22.992188 19.445312 -23.609375 17.84375 -24.234375 C 16.238281 -24.867188 14.679688 -25.585938 13.171875 -26.390625 C 11.660156 -27.203125 10.304688 -28.15625 9.109375 -29.25 C 7.910156 -30.351562 6.953125 -31.675781 6.234375 -33.21875 C 5.515625 -34.769531 5.15625 -36.609375 5.15625 -38.734375 C 5.15625 -41.054688 5.585938 -43.113281 6.453125 -44.90625 C 7.316406 -46.695312 8.507812 -48.210938 10.03125 -49.453125 C 11.550781 -50.691406 13.296875 -51.625 15.265625 -52.25 C 17.234375 -52.882812 19.316406 -53.203125 21.515625 -53.203125 C 24.753906 -53.203125 27.769531 -52.460938 30.5625 -50.984375 C 33.363281 -49.515625 35.664062 -47.1875 37.46875 -44 L 29.640625 -39.21875 C 28.722656 -41 27.519531 -42.375 26.03125 -43.34375 C 24.550781 -44.320312 22.9375 -44.8125 21.1875 -44.8125 C 19.945312 -44.8125 18.828125 -44.578125 17.828125 -44.109375 C 16.828125 -43.640625 16.035156 -42.984375 15.453125 -42.140625 C 14.867188 -41.304688 14.578125 -40.332031 14.578125 -39.21875 C 14.578125 -37.976562 14.9375 -36.921875 15.65625 -36.046875 C 16.375 -35.171875 17.332031 -34.40625 18.53125 -33.75 C 19.726562 -33.09375 21.082031 -32.472656 22.59375 -31.890625 C 24.101562 -31.304688 25.660156 -30.695312 27.265625 -30.0625 C 28.878906 -29.4375 30.4375 -28.710938 31.9375 -27.890625 C 33.445312 -27.078125 34.800781 -26.109375 36 -24.984375 C 37.207031 -23.859375 38.164062 -22.503906 38.875 -20.921875 C 39.59375 -19.335938 39.953125 -17.457031 39.953125 -15.28125 C 39.953125 -12.8125 39.476562 -10.59375 38.53125 -8.625 C 37.582031 -6.65625 36.269531 -4.984375 34.59375 -3.609375 C 32.925781 -2.242188 30.988281 -1.203125 28.78125 -0.484375 C 26.582031 0.234375 24.234375 0.59375 21.734375 0.59375 Z M 21.734375 0.59375 "/></g></g></g><g fill="#0f4c81" fill-opacity="1"><g transform="translate(78.036118, 68.091737)"><g><path d="M 16.65625 0 L 0.921875 -52.421875 L 10.71875 -52.421875 L 21.890625 -13.84375 L 33.5 -49.375 L 40.8125 -49.375 L 52.421875 -13.84375 L 63.59375 -52.421875 L 73.390625 -52.421875 L 57.65625 0 L 48.5625 0 L 37.140625 -34.5 L 25.75 0 Z M 16.65625 0 "/></g></g></g><g fill="#0f4c81" fill-opacity="1"><g transform="translate(183.959505, 68.091737)"><g><path d="M 6.75 0 L 6.75 -52.421875 L 16.171875 -52.421875 L 16.171875 -8.90625 L 38.578125 -8.90625 L 38.578125 0 Z M 6.75 0 "/></g></g></g><g fill="#0f4c81" fill-opacity="1"><g transform="translate(248.926326, 68.091737)"><g><path d="M 17.171875 0 L 17.171875 -44 L 0.734375 -44 L 0.734375 -52.421875 L 43 -52.421875 L 43 -44 L 26.609375 -44 L 26.609375 0 Z M 17.171875 0 "/></g></g></g></g></g></svg>