<svg id="Layer_1" data-name="Layer 1" xmlns="http://www.w3.org/2000/svg" viewBox="0 0 96 96"><path d="M76.29,89.36H12.43A10.44,10.44,0,0,1,2,78.93V38.59A10.44,10.44,0,0,1,12.43,28.16H62.94a1,1,0,0,1,0,2H12.43A8.44,8.44,0,0,0,4,38.59V78.93a8.44,8.44,0,0,0,8.43,8.43H76.29a8.44,8.44,0,0,0,8.43-8.43v-30a1,1,0,0,1,2,0v30A10.44,10.44,0,0,1,76.29,89.36Z"/><path d="M44.36,68.29a10.32,10.32,0,0,1-7.44-3.13L5,32.63a1,1,0,0,1,1.43-1.4l31.9,32.53a8.43,8.43,0,0,0,12,0L65.64,48.2a1,1,0,1,1,1.43,1.4L51.81,65.16A10.34,10.34,0,0,1,44.36,68.29Z"/><path d="M5.73,86.59A.94.94,0,0,1,5,86.3a1,1,0,0,1,0-1.41L31.32,58.06a1,1,0,0,1,1.42,0,1,1,0,0,1,0,1.41L6.44,86.29A1,1,0,0,1,5.73,86.59Z"/><path d="M83,86.59a1,1,0,0,1-.72-.3L56,59.46a1,1,0,0,1,0-1.41,1,1,0,0,1,1.42,0L83.71,84.89a1,1,0,0,1,0,1.41A1,1,0,0,1,83,86.59Z"/><path d="M91,49.9H60.13a3,3,0,0,1-2.49-4.66l4.13-6.13a1,1,0,0,0,.17-.55V28A13.63,13.63,0,1,1,89.2,28V38.56a1,1,0,0,0,.17.55l4.12,6.13A3,3,0,0,1,91,49.9ZM75.57,16.36A11.64,11.64,0,0,0,63.94,28V38.56a3,3,0,0,1-.51,1.67L59.3,46.36a1,1,0,0,0-.16.55,1,1,0,0,0,1,1H91a1,1,0,0,0,1-1,1,1,0,0,0-.17-.55l-4.12-6.13a3,3,0,0,1-.51-1.67V28A11.65,11.65,0,0,0,75.57,16.36Z"/><path d="M75.57,55.52A6.63,6.63,0,0,1,69,48.9a1,1,0,0,1,1-1H81.19a1,1,0,0,1,1,1A6.63,6.63,0,0,1,75.57,55.52ZM71.06,49.9a4.62,4.62,0,0,0,9,0Z"/><path d="M75.57,16.36a4.86,4.86,0,1,1,4.86-4.86A4.87,4.87,0,0,1,75.57,16.36Zm0-7.72a2.86,2.86,0,1,0,2.86,2.86A2.86,2.86,0,0,0,75.57,8.64Z"/></svg>