<svg xmlns="http://www.w3.org/2000/svg" xmlns:xlink="http://www.w3.org/1999/xlink" width="500" zoomAndPan="magnify" viewBox="0 0 375 374.999991" height="500" preserveAspectRatio="xMidYMid meet" version="1.0"><defs><clipPath id="dcbc1976ee"><path d="M 13.113281 58.019531 L 361.863281 58.019531 L 361.863281 316.769531 L 13.113281 316.769531 Z M 13.113281 58.019531 " clip-rule="nonzero"/></clipPath><clipPath id="30afaffc3a"><path d="M 233 145 L 361.863281 145 L 361.863281 230 L 233 230 Z M 233 145 " clip-rule="nonzero"/></clipPath></defs><g clip-path="url(#dcbc1976ee)"><path fill="#ffffff" d="M 42.632812 67.332031 C 32.019531 67.332031 23.398438 75.972656 23.398438 86.585938 L 23.398438 287.90625 C 23.398438 298.535156 32.019531 307.195312 42.632812 307.195312 L 332.359375 307.195312 C 342.972656 307.195312 351.59375 298.535156 351.59375 287.90625 L 351.59375 86.585938 C 351.59375 75.972656 342.972656 67.332031 332.359375 67.332031 Z M 332.359375 316.628906 L 42.632812 316.628906 C 26.824219 316.628906 13.964844 303.75 13.964844 287.90625 L 13.964844 86.585938 C 13.964844 70.757812 26.824219 57.898438 42.632812 57.898438 L 332.359375 57.898438 C 348.167969 57.898438 361.027344 70.757812 361.027344 86.585938 L 361.027344 287.90625 C 361.027344 303.75 348.167969 316.628906 332.359375 316.628906 " fill-opacity="1" fill-rule="nonzero"/></g><g clip-path="url(#30afaffc3a)"><path fill="#ffffff" d="M 275.515625 154.835938 C 266.855469 154.835938 258.730469 158.207031 252.613281 164.304688 C 246.496094 170.441406 243.105469 178.585938 243.105469 187.246094 C 243.105469 205.136719 257.640625 219.691406 275.515625 219.691406 L 351.59375 219.691406 L 351.59375 154.835938 Z M 361.027344 229.125 L 275.515625 229.125 C 252.445312 229.125 233.671875 210.332031 233.671875 187.246094 C 233.671875 176.0625 238.039062 165.558594 245.960938 157.636719 C 253.847656 149.75 264.332031 145.402344 275.515625 145.402344 L 361.027344 145.402344 L 361.027344 229.125 " fill-opacity="1" fill-rule="nonzero"/></g><path fill="#ffffff" d="M 276.179688 174.144531 C 268.957031 174.144531 263.058594 180.039062 263.058594 187.265625 C 263.058594 194.488281 268.957031 200.382812 276.179688 200.382812 C 283.417969 200.382812 289.296875 194.488281 289.296875 187.265625 C 289.296875 180.039062 283.417969 174.144531 276.179688 174.144531 Z M 276.179688 209.816406 C 263.742188 209.816406 253.625 199.699219 253.625 187.265625 C 253.625 174.828125 263.742188 164.710938 276.179688 164.710938 C 288.617188 164.710938 298.730469 174.828125 298.730469 187.265625 C 298.730469 199.699219 288.617188 209.816406 276.179688 209.816406 " fill-opacity="1" fill-rule="nonzero"/><path fill="#ffffff" d="M 22.015625 213.355469 L 15.34375 206.683594 L 162.75 59.28125 L 169.421875 65.949219 L 22.015625 213.355469 " fill-opacity="1" fill-rule="nonzero"/><path fill="#ffffff" d="M 22.015625 157.320312 L 15.34375 150.652344 L 106.753906 59.28125 L 113.425781 65.949219 L 22.015625 157.320312 " fill-opacity="1" fill-rule="nonzero"/></svg>